<svg xmlns="http://www.w3.org/2000/svg" viewBox="0 0 48 48"><path d="M10,10H6V6h4Zm4,0H10v4h4Zm4,4H14v4h4Zm4,4H18v4h4Zm4,4H22v4h4Zm4,4H26v4h4Zm4,4H30v4h4ZM10,14H6v4h4Zm4,4H10v4h4Zm4,4H14v4h4Zm4,4H18v4h4Zm4,4H22v4h4Zm4,4H26v4h4Zm4,4H30v4h4ZM10,22H6v4h4Zm4,4H10v4h4Zm4,4H14v4h4Zm4,4H18v4h4Zm4,4H22v4h4ZM10,30H6v4h4Zm0,8H6v4h4Zm4-4H10v4h4Zm4,4H14v4h4Zm20-4H34v4h4Zm4,4H38v4h4ZM18,6H14v4h4Zm4,4H18v4h4Zm4,4H22v4h4Zm4,4H26v4h4Zm4,4H30v4h4Zm4,4H34v4h4Zm4,4H38v4h4ZM26,6H22v4h4Zm4,4H26v4h4Zm4,4H30v4h4Zm4,4H34v4h4Zm4,4H38v4h4ZM34,6H30v4h4Zm4,4H34v4h4Zm4,4H38v4h4Zm0-8H38v4h4Z"/><rect width="48" height="48" style="fill:none"/></svg>