<svg xmlns="http://www.w3.org/2000/svg" viewBox="0 0 48 48"><rect width="48" height="48" style="fill:none"/><path d="M24,21a3,3,0,1,1-3,3,3,3,0,0,1,3-3m0-4a7,7,0,1,0,7,7,7,7,0,0,0-7-7ZM24,6A18,18,0,1,0,42,24,18,18,0,0,0,24,6Zm2,31.84V34H22v3.84a14,14,0,0,1-9-5.19l3.33-1.92-2-3.46L11,29.19a13.84,13.84,0,0,1,0-10.38l3.33,1.92,2-3.46L13,15.35a14,14,0,0,1,9-5.19V14h4V10.16a14,14,0,0,1,9,5.19l-3.33,1.92,2,3.46L37,18.81a13.84,13.84,0,0,1,0,10.38l-3.33-1.92-2,3.46L35,32.65A14,14,0,0,1,26,37.84Z"/></svg>