<svg xmlns="http://www.w3.org/2000/svg" viewBox="0 0 48 48"><rect width="48" height="48" style="fill:none"/><path d="M42,23a11.42,11.42,0,0,1-7.11-2.34A7.56,7.56,0,0,0,30,19a7.54,7.54,0,0,0-4.89,1.66A11.54,11.54,0,0,1,18,23a11.48,11.48,0,0,1-7.1-2.34A7.58,7.58,0,0,0,6,19V15a11.51,11.51,0,0,1,7.11,2.34A7.53,7.53,0,0,0,18,19a7.59,7.59,0,0,0,4.9-1.66A11.42,11.42,0,0,1,30,15a11.51,11.51,0,0,1,7.11,2.34A7.56,7.56,0,0,0,42,19Zm0,6a7.56,7.56,0,0,1-4.89-1.66A11.45,11.45,0,0,0,30,25a11.42,11.42,0,0,0-7.11,2.34A7.59,7.59,0,0,1,18,29a7.53,7.53,0,0,1-4.88-1.66A11.45,11.45,0,0,0,6,25v4a7.58,7.58,0,0,1,4.89,1.66A11.41,11.41,0,0,0,18,33a11.48,11.48,0,0,0,7.12-2.34A7.54,7.54,0,0,1,30,29a7.56,7.56,0,0,1,4.89,1.66A11.42,11.42,0,0,0,42,33Z"/></svg>