<svg xmlns="http://www.w3.org/2000/svg" viewBox="0 0 48 48"><rect width="48" height="48" style="fill:none"/><path d="M34,24.06v.43a34.21,34.21,0,0,1-1.77,10.85L30.4,40.86a17.53,17.53,0,0,1-4.35,1.07l2.19-6.59A34.21,34.21,0,0,0,30,24.49v-.43a6,6,0,0,0-6.79-5.95A6.13,6.13,0,0,0,18,24.26v.23a34.21,34.21,0,0,1-1.77,10.85l-1.39,4.19a17.54,17.54,0,0,1-3.2-2.41l.59-1.78A34.21,34.21,0,0,0,14,24.49V24.4a10.21,10.21,0,0,1,9.33-10.32A10,10,0,0,1,34,24.06Zm-8,.43v-.43H22v.43a34.21,34.21,0,0,1-1.77,10.85l-1.92,5.78a17.61,17.61,0,0,0,3.72.82l2.2-6.6A34.21,34.21,0,0,0,26,24.49Zm-16,0v-.43a14,14,0,0,1,14.7-14A14.27,14.27,0,0,1,38,24.46v0a34.21,34.21,0,0,1-1.77,10.85L35.35,38A17.9,17.9,0,0,0,42,24.27c-.11-9.67-7.65-17.86-17.33-18.2A18,18,0,0,0,8.75,33.58,34.09,34.09,0,0,0,10,24.49Z"/></svg>