<svg xmlns="http://www.w3.org/2000/svg" viewBox="0 0 48 48"><rect width="48" height="48" style="fill:none"/><path d="M39.66,19.66,31.81,27.5a8,8,0,0,1-12.94-2.36,3.23,3.23,0,0,1,.74-1.22,3.15,3.15,0,0,1,2.74-.87,4,4,0,0,0,1,1.62,4,4,0,0,0,5.66,0l7.84-7.84a4,4,0,0,0-5.66-5.66L25.35,17a10,10,0,0,0-5.09-.55l.24-.26,7.84-7.85A8,8,0,1,1,39.66,19.66ZM22.64,31l-5.81,5.81a4,4,0,0,1-5.66-5.66L19,23.33a4,4,0,0,1,5.66,0,3.75,3.75,0,0,1,.84,1.27,2.72,2.72,0,0,0,2.66-.75,2.72,2.72,0,0,0,.75-1.39,8,8,0,0,0-12.73-2L8.34,28.34a8,8,0,0,0,0,11.32h0a8,8,0,0,0,11.32,0l7.84-7.85a3,3,0,0,0,.24-.26A9.87,9.87,0,0,1,22.64,31Z"/></svg>