<svg xmlns="http://www.w3.org/2000/svg" viewBox="0 0 48 48"><path d="M42,26V22H37.84a13.9,13.9,0,0,0-2.64-6.37l2.94-2.94L35.31,9.86,32.37,12.8A13.9,13.9,0,0,0,26,10.16V6H22v4.16a13.9,13.9,0,0,0-6.37,2.64L12.69,9.86,9.86,12.69l2.94,2.94A13.9,13.9,0,0,0,10.16,22H6v4h4.16a13.9,13.9,0,0,0,2.64,6.37L9.86,35.31l2.83,2.83,2.94-2.94A13.9,13.9,0,0,0,22,37.84V42h4V37.84a13.9,13.9,0,0,0,6.37-2.64l2.94,2.94,2.83-2.83L35.2,32.37A13.9,13.9,0,0,0,37.84,26ZM24,14a10,10,0,0,1,9.8,8H25.15l-4.31-7.48A10,10,0,0,1,24,14ZM14,24a10,10,0,0,1,3.38-7.47L21.69,24l-4.31,7.47A10,10,0,0,1,14,24ZM24,34a10,10,0,0,1-3.16-.52L25.15,26H33.8A10,10,0,0,1,24,34Z"/><rect width="48" height="48" style="fill:none"/></svg>