<svg xmlns="http://www.w3.org/2000/svg" viewBox="0 0 48 48"><path d="M24,18a6,6,0,1,0,6,6A6,6,0,0,0,24,18Zm0,8a2,2,0,1,1,2-2A2,2,0,0,1,24,26Zm18,0V22H37.84a13.9,13.9,0,0,0-2.64-6.37l2.94-2.94L35.31,9.86,32.37,12.8A13.9,13.9,0,0,0,26,10.16V6H22v4.16a13.9,13.9,0,0,0-6.37,2.64L12.69,9.86,9.86,12.69l2.94,2.94A13.9,13.9,0,0,0,10.16,22H6v4h4.16a13.9,13.9,0,0,0,2.64,6.37L9.86,35.31l2.83,2.83,2.94-2.94A13.9,13.9,0,0,0,22,37.84V42h4V37.84a13.9,13.9,0,0,0,6.37-2.64l2.94,2.94,2.83-2.83L35.2,32.37A13.9,13.9,0,0,0,37.84,26ZM24,34A10,10,0,1,1,34,24,10,10,0,0,1,24,34Z"/><rect width="48" height="48" style="fill:none"/></svg>