<svg xmlns="http://www.w3.org/2000/svg" viewBox="0 0 48 48"><rect width="48" height="48" style="fill:none"/><path d="M14.34,10.74A19.58,19.58,0,0,0,24,13.26a19.58,19.58,0,0,0,9.66-2.52,16.61,16.61,0,0,1,3.6,3.6,19.78,19.78,0,0,0,0,19.32,16.61,16.61,0,0,1-3.6,3.6,19.78,19.78,0,0,0-19.32,0,16.61,16.61,0,0,1-3.6-3.6A19.58,19.58,0,0,0,13.26,24a19.58,19.58,0,0,0-2.52-9.66,16.61,16.61,0,0,1,3.6-3.6M33.6,6A15.75,15.75,0,0,1,24,9.26,15.75,15.75,0,0,1,14.4,6,20.36,20.36,0,0,0,6,14.4,15.75,15.75,0,0,1,9.26,24,15.75,15.75,0,0,1,6,33.6,20.36,20.36,0,0,0,14.4,42a15.76,15.76,0,0,1,19.2,0A20.36,20.36,0,0,0,42,33.6a15.76,15.76,0,0,1,0-19.2A20.36,20.36,0,0,0,33.6,6Z"/></svg>