<svg xmlns="http://www.w3.org/2000/svg" viewBox="0 0 48 48"><rect width="48" height="48" style="fill:none"/><path d="M36,30a6,6,0,0,0-2.58.59l-2.53-2.53a8,8,0,0,0,0-8.12l2.53-2.53a6,6,0,1,0-2.83-2.83l-2.53,2.53a8,8,0,0,0-8.12,0l-2.53-2.53a6,6,0,1,0-2.83,2.83l2.53,2.53a8,8,0,0,0,0,8.12l-2.53,2.53a6,6,0,1,0,2.83,2.83l2.53-2.53a8,8,0,0,0,8.12,0l2.53,2.53A6,6,0,1,0,36,30Zm0-20a2,2,0,1,1-2,2A2,2,0,0,1,36,10ZM10,12a2,2,0,1,1,2,2A2,2,0,0,1,10,12Zm2,26a2,2,0,1,1,2-2A2,2,0,0,1,12,38ZM24,28a4,4,0,1,1,4-4A4,4,0,0,1,24,28ZM36,38a2,2,0,1,1,2-2A2,2,0,0,1,36,38Z"/></svg>