<svg xmlns="http://www.w3.org/2000/svg" viewBox="0 0 48 48"><path d="M29.66,21.17,26.83,24l2.83,2.83-2.83,2.83L24,26.83l-2.83,2.83-2.83-2.83L21.17,24l-2.83-2.83,2.83-2.83L24,21.17l2.83-2.83Zm14,0-2.83-2.83L38,21.17l-2.83-2.83-2.83,2.83L35.17,24l-2.83,2.83,2.83,2.83L38,26.83l2.83,2.83,2.83-2.83L40.83,24ZM12.83,18.34,10,21.17,7.17,18.34,4.34,21.17,7.17,24,4.34,26.83l2.83,2.83L10,26.83l2.83,2.83,2.83-2.83L12.83,24l2.83-2.83ZM34.38,31.79a12.95,12.95,0,0,1-20.76,0l-3.21,2.4a17,17,0,0,0,27.18,0ZM24,7a17,17,0,0,0-13.59,6.81l3.21,2.4a12.95,12.95,0,0,1,20.76,0l3.21-2.4A17,17,0,0,0,24,7Z"/><rect width="48" height="48" style="fill:none"/></svg>