<svg xmlns="http://www.w3.org/2000/svg" viewBox="0 0 48 48"><path d="M24,21.69l2,1.16v2.3l-2,1.16-2-1.16v-2.3l2-1.16m0-4.62-6,3.47v6.92l6,3.47,6-3.47V20.54l-6-3.47Zm14,4.62,2,1.16v2.3l-2,1.16-2-1.16v-2.3l2-1.16m0-4.62-6,3.47v6.92l6,3.47,6-3.47V20.54l-6-3.47ZM10,21.69l2,1.16v2.3l-2,1.16L8,25.15v-2.3l2-1.16m0-4.62L4,20.54v6.92l6,3.47,6-3.47V20.54l-6-3.47Zm7,16.74L19,35v2.31l-2,1.15-2-1.15V35l2-1.16m0-4.61-6,3.46v6.93l6,3.46,6-3.46V32.66L17,29.2ZM31,9.57l2,1.15V13l-2,1.16L29,13V10.72l2-1.15M31,5,25,8.41v6.93l6,3.46,6-3.46V8.41L31,5Zm0,28.86L33,35v2.31l-2,1.15-2-1.15V35l2-1.16m0-4.61-6,3.46v6.93l6,3.46,6-3.46V32.66L31,29.2ZM17,9.57l2,1.15V13l-2,1.16L15,13V10.72l2-1.15M17,5,11,8.41v6.93l6,3.46,6-3.46V8.41L17,5Z"/><rect width="48" height="48" style="fill:none"/></svg>