<svg xmlns="http://www.w3.org/2000/svg" viewBox="0 0 48 48"><rect width="48" height="48" style="fill:none"/><path d="M34.06,9a53.15,53.15,0,0,1-2.42,6.79A54.75,54.75,0,0,0,19.06,3a64.93,64.93,0,0,1,.71,9.62c0,.31,0,.6,0,.9a21.24,21.24,0,0,0-6.25-3.8c-.37-.15-.76-.24-1.13-.37C12.75,16.42,8,23.28,8,29a16,16,0,0,0,32,0C40,22.5,36.53,13.83,34.06,9ZM24,41A12,12,0,0,1,12,29c0-5.11,3.42-10.27,3.87-13.46a20.05,20.05,0,0,1,6.82,9.12,69.11,69.11,0,0,0,1.08-12v-.17A50.61,50.61,0,0,1,32,24.05q1.17-2,2.19-4.09A23.13,23.13,0,0,1,36,29h0A12,12,0,0,1,24,41Z"/></svg>