<svg xmlns="http://www.w3.org/2000/svg" viewBox="0 0 48 48"><rect width="48" height="48" style="fill:none"/><path d="M38,24.5a23.24,23.24,0,0,0-14-21,23.24,23.24,0,0,0-14,21A14,14,0,0,0,22,38.34V44.5h4V38.34A14,14,0,0,0,38,24.5ZM22,26.08,14.24,21.6a18.78,18.78,0,0,1,1-3.79L22,21.7Zm4-4.38,6.73-3.89a18.78,18.78,0,0,1,1,3.79L26,26.08Zm4.87-7.43L26,17.08V9.26A19.62,19.62,0,0,1,30.87,14.27ZM22,9.26v7.82l-4.87-2.81A19.62,19.62,0,0,1,22,9.26Zm-7.85,16.9L22,30.7v3.6A10,10,0,0,1,14.15,26.16ZM26,34.3V30.7l7.85-4.54A10,10,0,0,1,26,34.3Z"/></svg>