<svg xmlns="http://www.w3.org/2000/svg" viewBox="0 0 48 48"><rect width="48" height="48" style="fill:none"/><path d="M30.33,29.17a12.9,12.9,0,0,1,.6-1.17c.22-.38.46-.74.71-1.09A18,18,0,0,0,42,31V27a14.14,14.14,0,0,1-7.59-3A14.14,14.14,0,0,1,42,21V17a18,18,0,0,0-10.36,4.05c-.25-.35-.49-.71-.71-1.09a12.9,12.9,0,0,1-.6-1.17A18,18,0,0,0,41.55,6H37.41a14.09,14.09,0,0,1-8.21,9,14.13,14.13,0,0,1,1.74-9H26.49a18.09,18.09,0,0,0-1.18,9.93c-.43,0-.87.07-1.31.07s-.88,0-1.31-.07A18.09,18.09,0,0,0,21.51,6H17.06a14.13,14.13,0,0,1,1.74,9,14.09,14.09,0,0,1-8.21-9H6.45A18,18,0,0,0,17.67,18.83a12.9,12.9,0,0,1-.6,1.17c-.22.38-.46.74-.71,1.09A18,18,0,0,0,6,17v4a14.14,14.14,0,0,1,7.59,3A14.14,14.14,0,0,1,6,27v4a18,18,0,0,0,10.36-4.05c.25.35.49.71.71,1.09a12.9,12.9,0,0,1,.6,1.17A18,18,0,0,0,6.45,42h4.14a14.09,14.09,0,0,1,8.21-9,14.13,14.13,0,0,1-1.74,9h4.45a18.09,18.09,0,0,0,1.18-9.93c.43,0,.87-.07,1.31-.07s.88,0,1.31.07A18.09,18.09,0,0,0,26.49,42h4.45a14.13,14.13,0,0,1-1.74-9,14.09,14.09,0,0,1,8.21,9h4.14A18,18,0,0,0,30.33,29.17ZM27.46,26a19,19,0,0,0-1.05,2.18,16.22,16.22,0,0,0-4.82,0A19,19,0,0,0,20.54,26a18.83,18.83,0,0,0-1.34-2,18.83,18.83,0,0,0,1.34-2,19,19,0,0,0,1.05-2.18,16.22,16.22,0,0,0,4.82,0A19,19,0,0,0,27.46,22a18.83,18.83,0,0,0,1.34,2A18.83,18.83,0,0,0,27.46,26Z"/></svg>