<svg xmlns="http://www.w3.org/2000/svg" viewBox="0 0 48 48"><rect width="48" height="48" style="fill:none"/><path d="M39,23A18,18,0,0,0,3,23c0,.16,0,.31,0,.46A64.8,64.8,0,0,0,19,26V43h4V26a64.8,64.8,0,0,0,16-2.5C39,23.31,39,23.16,39,23ZM21,22A60.77,60.77,0,0,1,7.24,20.42a14,14,0,0,1,27.52,0A60.77,60.77,0,0,1,21,22ZM45,36.33a10,10,0,0,0-20,0c0,.09,0,.17,0,.26a36.37,36.37,0,0,0,8,1.34V43h4V37.93a36.37,36.37,0,0,0,8-1.34C45,36.5,45,36.42,45,36.33ZM35,34a32.73,32.73,0,0,1-5.32-.44,6,6,0,0,1,10.64,0A32.73,32.73,0,0,1,35,34Z"/></svg>