<svg xmlns="http://www.w3.org/2000/svg" viewBox="0 0 48 48"><path d="M6,24A18,18,0,0,0,24,42,18,18,0,0,0,6,24Zm4.88,4.88a14,14,0,0,1,8.24,8.24A14,14,0,0,1,10.88,28.88ZM24,42A18,18,0,0,0,42,24,18,18,0,0,0,24,42Zm4.88-4.88a14,14,0,0,1,8.24-8.24A14,14,0,0,1,28.88,37.12ZM24,10a2,2,0,0,1,1.71,1l.88,1.46,1.66.38a2,2,0,0,1,1.05,3.26l-1.11,1.28.15,1.69a2,2,0,0,1-.81,1.8,1.92,1.92,0,0,1-1.16.38,2,2,0,0,1-.8-.16L24,20.4l-1.57.67a2,2,0,0,1-.8.16,1.92,1.92,0,0,1-1.16-.38,2,2,0,0,1-.81-1.8l.15-1.69L18.7,16.08a2,2,0,0,1,1.05-3.26l1.66-.38L22.29,11A2,2,0,0,1,24,10m0-4a6,6,0,0,0-5.14,2.92,6,6,0,0,0-3.18,9.78A6,6,0,0,0,24,24.75a6,6,0,0,0,2.37.48,6,6,0,0,0,5.95-6.53,6,6,0,0,0-3.18-9.78A6,6,0,0,0,24,6Z"/><rect width="48" height="48" style="fill:none"/></svg>