<svg xmlns="http://www.w3.org/2000/svg" viewBox="0 0 48 48"><rect width="48" height="48" style="fill:none"/><path d="M42,18V12H38v3.69l-4.73,2.72a12.58,12.58,0,0,0-2.38-2.23A7.61,7.61,0,0,0,31,15a7,7,0,0,0-14,0,7.61,7.61,0,0,0,.11,1.18,12.58,12.58,0,0,0-2.38,2.23L10,15.69V12H6v6l6.74,3.88A11.58,11.58,0,0,0,12.19,24H6v4h6.18a11.6,11.6,0,0,0,.56,2.12L6,34v6h4V36.31l4.71-2.71a12,12,0,0,0,18.58,0L38,36.31V40h4V34l-6.74-3.88A11.6,11.6,0,0,0,35.82,28H42V24H35.81a11.58,11.58,0,0,0-.55-2.12ZM24,12a3,3,0,0,1,2.93,2.38,11.49,11.49,0,0,0-5.86,0A3,3,0,0,1,24,12Zm0,22a8,8,0,1,1,8-8A8,8,0,0,1,24,34Z"/></svg>