<svg xmlns="http://www.w3.org/2000/svg" viewBox="0 0 48 48"><path d="M24,19a5,5,0,1,1-5,5,5,5,0,0,1,5-5m0-4a9,9,0,1,0,9,9,9,9,0,0,0-9-9Zm-6.63-2.17a12.68,12.68,0,0,0-6.1-1.56,12.68,12.68,0,0,0,1.56,6.1A13,13,0,0,1,17.37,12.83Zm17.8,4.54a12.68,12.68,0,0,0,1.56-6.1,12.68,12.68,0,0,0-6.1,1.56A13,13,0,0,1,35.17,17.37ZM42,24a12.65,12.65,0,0,0-5.42-3.21,12.48,12.48,0,0,1,0,6.42A12.65,12.65,0,0,0,42,24ZM24,11a12.61,12.61,0,0,1,3.21.42A12.65,12.65,0,0,0,24,6a12.65,12.65,0,0,0-3.21,5.42A12.61,12.61,0,0,1,24,11Zm6.63,24.17a12.68,12.68,0,0,0,6.1,1.56,12.68,12.68,0,0,0-1.56-6.1A13,13,0,0,1,30.63,35.17ZM24,37a12.61,12.61,0,0,1-3.21-.42A12.65,12.65,0,0,0,24,42a12.65,12.65,0,0,0,3.21-5.42A12.61,12.61,0,0,1,24,37ZM11,24a12.61,12.61,0,0,1,.42-3.21A12.65,12.65,0,0,0,6,24a12.65,12.65,0,0,0,5.42,3.21A12.61,12.61,0,0,1,11,24Zm1.83,6.63a12.68,12.68,0,0,0-1.56,6.1,12.68,12.68,0,0,0,6.1-1.56A13,13,0,0,1,12.83,30.63Z"/><rect width="48" height="48" style="fill:none"/></svg>