<svg xmlns="http://www.w3.org/2000/svg" viewBox="0 0 48 48"><path d="M36.94,23.77a13,13,0,0,0-5-9c0-.24,0-.49,0-.74a8,8,0,0,0-16,0c0,.25,0,.5,0,.74a13,13,0,0,0-3,3.35A6,6,0,0,0,11.85,29.6a13,13,0,0,0,10.27,8.26V42h4V37.82a13.08,13.08,0,0,0,6.4-3,6,6,0,0,0,4.42-11ZM34,31a1.93,1.93,0,0,1-.5-.07l-2-.52-1.58,1.38a9,9,0,0,1-14.3-3.61L15,26.51l-1.67-.65A2,2,0,0,1,12,24a2,2,0,0,1,1.66-2l1.77-.29,1-1.52a9.1,9.1,0,0,1,2.1-2.32l1.73-1.35L20,14.37c0-.15,0-.27,0-.37a4,4,0,0,1,8,0c0,.1,0,.22,0,.37l-.2,2.18,1.73,1.35A9,9,0,0,1,33,24.15l.19,2.08,1.83,1A2,2,0,0,1,34,31Z"/><rect width="48" height="48" style="fill:none"/></svg>