<svg xmlns="http://www.w3.org/2000/svg" viewBox="0 0 48 48"><rect width="48" height="48" style="fill:none"/><path d="M7.51,16.79l3.5,2A13.64,13.64,0,0,0,10.16,22h-4A17.91,17.91,0,0,1,7.51,16.79ZM11,29.19A13.64,13.64,0,0,1,10.16,26h-4a17.91,17.91,0,0,0,1.39,5.21ZM22,41.88v-4A13.64,13.64,0,0,1,18.81,37l-2,3.5A17.91,17.91,0,0,0,22,41.88ZM29.19,37a13.64,13.64,0,0,1-3.19.85v4a17.91,17.91,0,0,0,5.21-1.39ZM26,6.12v4a13.64,13.64,0,0,1,3.19.85l2-3.5A17.91,17.91,0,0,0,26,6.12ZM18.81,11A13.64,13.64,0,0,1,22,10.16v-4a17.91,17.91,0,0,0-5.21,1.39ZM15.35,35A14.39,14.39,0,0,1,13,32.65l-3.49,2a18.59,18.59,0,0,0,3.81,3.81ZM35,32.65A14.39,14.39,0,0,1,32.65,35l2,3.49a18.59,18.59,0,0,0,3.81-3.81ZM13,15.35A14.39,14.39,0,0,1,15.35,13l-2-3.49a18.59,18.59,0,0,0-3.81,3.81ZM32.65,13A14.39,14.39,0,0,1,35,15.35l3.49-2a18.59,18.59,0,0,0-3.81-3.81ZM37,18.81A13.64,13.64,0,0,1,37.84,22h4a17.91,17.91,0,0,0-1.39-5.21ZM41.88,26h-4A13.64,13.64,0,0,1,37,29.19l3.5,2A17.91,17.91,0,0,0,41.88,26Z"/></svg>