<svg xmlns="http://www.w3.org/2000/svg" viewBox="0 0 48 48"><path d="M11.27,11.27a18,18,0,1,0,25.46,0A18,18,0,0,0,11.27,11.27Zm21.1,1.53-2.86,2.86a10,10,0,0,0-11,0L15.63,12.8A14,14,0,0,1,32.37,12.8ZM28.24,28.24a6,6,0,1,1,0-8.48A6,6,0,0,1,28.24,28.24ZM12.8,15.63l2.86,2.86a10,10,0,0,0,0,11L12.8,32.37A14,14,0,0,1,12.8,15.63ZM15.63,35.2l2.86-2.86a10,10,0,0,0,11,0l2.86,2.86A14,14,0,0,1,15.63,35.2ZM35.2,32.37l-2.86-2.86a10,10,0,0,0,0-11l2.86-2.86A14,14,0,0,1,35.2,32.37Z"/><rect width="48" height="48" style="fill:none"/></svg>