<svg xmlns="http://www.w3.org/2000/svg" viewBox="0 0 48 48"><path d="M24,6A18,18,0,1,0,42,24,18,18,0,0,0,24,6ZM36.11,17H31V11.89A14.07,14.07,0,0,1,36.11,17ZM38,24a14.14,14.14,0,0,1-.33,3H31V21h6.67A14.14,14.14,0,0,1,38,24ZM10,24a14.14,14.14,0,0,1,.33-3H17v6H10.33A14.14,14.14,0,0,1,10,24Zm11-3h6v6H21Zm6-10.67V17H21V10.33a13.8,13.8,0,0,1,6,0ZM17,11.89V17H11.89A14.07,14.07,0,0,1,17,11.89ZM11.89,31H17v5.11A14.07,14.07,0,0,1,11.89,31ZM21,37.67V31h6v6.67a13.8,13.8,0,0,1-6,0Zm10-1.56V31h5.11A14.07,14.07,0,0,1,31,36.11Z"/><rect width="48" height="48" style="fill:none"/></svg>