<svg xmlns="http://www.w3.org/2000/svg" viewBox="0 0 48 48"><path d="M24,6A18,18,0,1,0,42,24,18,18,0,0,0,24,6ZM37,19c0,4.88-5.95,9-13,9s-13-4.12-13-9c0-.07,0-.15,0-.22a11.79,11.79,0,0,1,.53-1.14C13.86,20.22,18.56,22,24,22s10.14-1.78,12.45-4.36A11.79,11.79,0,0,1,37,18.78C37,18.85,37,18.93,37,19Zm-3-4.81C33.64,15.44,30.18,18,24,18s-9.64-2.56-10-3.81a14,14,0,0,1,19.94,0ZM24,38A14,14,0,0,1,10.25,26.62,19,19,0,0,0,24,32a19,19,0,0,0,13.75-5.38A14,14,0,0,1,24,38Z"/><rect width="48" height="48" style="fill:none"/></svg>