<svg xmlns="http://www.w3.org/2000/svg" viewBox="0 0 48 48"><rect width="48" height="48" style="fill:none"/><path d="M14.8,13.63l-2.94-2.94,2.83-2.83,2.94,2.94A13.56,13.56,0,0,0,14.8,13.63ZM28,8.16V4H24V8.16A14.58,14.58,0,0,1,26,8,14.58,14.58,0,0,1,28,8.16Zm9.2,5.47,2.94-2.94L37.31,7.86,34.37,10.8A13.56,13.56,0,0,1,37.2,13.63ZM39.84,20A14.58,14.58,0,0,1,40,22a14.58,14.58,0,0,1-.16,2H44V20ZM44,35a9,9,0,0,1-9,9H14a10,10,0,0,1-2.83-19.59,14,14,0,0,1,3-4.37,12,12,0,1,1,23.17,5.82c0,.17.11.33.16.5A9,9,0,0,1,44,35ZM20.17,16.54A13.89,13.89,0,0,1,33.72,20a8,8,0,0,0-13.55-3.42ZM40,35a5,5,0,0,0-5-5,5.67,5.67,0,0,0-1,.1.34.34,0,0,0,0-.1,10,10,0,0,0-19.8-2H14a6,6,0,0,0,0,12H35A5,5,0,0,0,40,35Z"/></svg>