<svg xmlns="http://www.w3.org/2000/svg" viewBox="0 0 48 48"><rect width="48" height="48" style="fill:none"/><path d="M37.51,26.36q-.13-.48-.3-.93A12.42,12.42,0,0,0,41,16.5a11.68,11.68,0,0,0-.13-1.69A7.63,7.63,0,1,1,30.19,4.13,11.68,11.68,0,0,0,28.5,4,12.5,12.5,0,0,0,16,16.5a12,12,0,0,0,.16,1.91,14,14,0,0,0-5,6A10,10,0,0,0,14,44H35a9,9,0,0,0,2.51-17.64ZM20,16.5a8.45,8.45,0,0,1,3.12-6.57c0,.1,0,.21,0,.32A11.57,11.57,0,0,0,24.67,16c-.22,0-.44,0-.67,0a14.27,14.27,0,0,0-4,.58ZM35,40H14a6,6,0,0,1,0-12h.2A10,10,0,0,1,34,30a.34.34,0,0,1,0,.1,5.67,5.67,0,0,1,1-.1,5,5,0,0,1,0,10Z"/></svg>