<svg xmlns="http://www.w3.org/2000/svg" viewBox="0 0 48 48"><rect width="48" height="48" style="fill:none"/><path d="M44,25a9,9,0,0,1-9,9h-.76l2.5-4.33A5,5,0,0,0,35,20a5.67,5.67,0,0,0-1,.1.34.34,0,0,0,0-.1,10,10,0,0,0-19.8-2H14a6,6,0,0,0-4.73,9.68L7.18,31.3a10,10,0,0,1,4-16.89,14,14,0,0,1,26.34,1.95A9,9,0,0,1,44,25Zm-9.3,3L37,24H32.39l-2.31,4ZM24.31,38,22,42h4.62l2.31-4Zm6.35-3L33,31H28.35L26,35Zm-5-7L28,24H23.39l-2.31,4ZM15.31,38,13,42h4.62l2.31-4Zm6.35-3L24,31H19.35L17,35Zm-5-7L19,24H14.39l-2.31,4ZM6.31,38,4,42H8.62l2.31-4Zm6.35-3L15,31H10.35L8,35Z"/></svg>