<svg xmlns="http://www.w3.org/2000/svg" viewBox="0 0 48 48"><rect width="48" height="48" style="fill:none"/><path d="M42,17.37l-2.83-2.83L31.73,22A8,8,0,0,0,26,16.27l7.44-7.44L30.63,6,26,10.63V6H22v4.63L17.37,6,14.54,8.83,22,16.27A8,8,0,0,0,16.27,22L8.83,14.54,6,17.37,10.63,22H6v4h4.63L6,30.63l2.83,2.83L16.27,26A8,8,0,0,0,22,31.73l-7.44,7.44L17.37,42,22,37.37V42h4V37.37L30.63,42l2.83-2.83L26,31.73A8,8,0,0,0,31.73,26l7.44,7.44L42,30.63,37.37,26H42V22H37.37ZM24,28a4,4,0,1,1,4-4A4,4,0,0,1,24,28Z"/></svg>