<svg xmlns="http://www.w3.org/2000/svg" viewBox="0 0 48 48"><rect width="48" height="48" style="fill:none"/><polygon points="42 15.37 39.17 12.54 29.72 22 26 22 26 18.28 35.46 8.83 32.63 6 26 12.63 26 6 22 6 22 12.63 15.37 6 12.54 8.83 22 18.28 22 22 18.28 22 8.83 12.54 6 15.37 12.63 22 6 22 6 26 12.63 26 6 32.63 8.83 35.46 18.28 26 22 26 22 29.72 12.54 39.17 15.37 42 22 35.37 22 42 26 42 26 35.37 32.63 42 35.46 39.17 26 29.72 26 26 29.72 26 39.17 35.46 42 32.63 35.37 26 42 26 42 22 35.37 22 42 15.37"/></svg>