<svg xmlns="http://www.w3.org/2000/svg" viewBox="0 0 48 48"><path d="M24,16a8,8,0,1,1-8,8,8,8,0,0,1,8-8m0-4A12,12,0,1,0,36,24,12,12,0,0,0,24,12Zm-8.37.8L12.69,9.86,9.86,12.69l2.94,2.94A13.56,13.56,0,0,1,15.63,12.8ZM24,10a14.58,14.58,0,0,1,2,.16V6H22v4.16A14.58,14.58,0,0,1,24,10ZM10,24a14.58,14.58,0,0,1,.16-2H6v4h4.16A14.58,14.58,0,0,1,10,24Zm25.2-8.37,2.94-2.94L35.31,9.86,32.37,12.8A13.56,13.56,0,0,1,35.2,15.63ZM37.84,22A14.58,14.58,0,0,1,38,24a14.58,14.58,0,0,1-.16,2H42V22Zm-25,10.37h0L9.86,35.31l2.83,2.83,2.94-2.94h0A13.56,13.56,0,0,1,12.8,32.37Zm22.4,0a13.56,13.56,0,0,1-2.83,2.83h0l2.94,2.94,2.83-2.83L35.2,32.37ZM24,38a14.58,14.58,0,0,1-2-.16V42h4V37.84A14.58,14.58,0,0,1,24,38Z"/><rect width="48" height="48" style="fill:none"/></svg>