<svg xmlns="http://www.w3.org/2000/svg" viewBox="0 0 48 48"><rect width="48" height="48" style="fill:none"/><path d="M24,13a14.58,14.58,0,0,0-2,.16V9h4v4.16A14.58,14.58,0,0,0,24,13Zm11.2,5.63,2.94-2.94-2.83-2.83L32.37,15.8A13.56,13.56,0,0,1,35.2,18.63ZM37.84,25A14.58,14.58,0,0,1,38,27a14.58,14.58,0,0,1-.16,2H42V25ZM15.63,15.8l-2.94-2.94L9.86,15.69l2.94,2.94A13.56,13.56,0,0,1,15.63,15.8ZM32.93,35H42v4H6V35h9.07a12,12,0,1,1,17.86,0ZM24,35a8,8,0,1,0-8-8A8,8,0,0,0,24,35ZM10,27a14.58,14.58,0,0,1,.16-2H6v4h4.16A14.58,14.58,0,0,1,10,27Z"/></svg>