<svg xmlns="http://www.w3.org/2000/svg" viewBox="0 0 48 48"><rect width="48" height="48" style="fill:none"/><path d="M24,35a14.58,14.58,0,0,0,2-.16V39H22V34.84A14.58,14.58,0,0,0,24,35ZM12.8,29.37,9.86,32.31l2.83,2.83,2.94-2.94A13.56,13.56,0,0,1,12.8,29.37ZM10.16,23A14.58,14.58,0,0,1,10,21a14.58,14.58,0,0,1,.16-2H6v4Zm22.21,9.2,2.94,2.94,2.83-2.83L35.2,29.37A13.56,13.56,0,0,1,32.37,32.2ZM15.07,13H6V9H42v4H32.93a12,12,0,1,1-17.86,0ZM24,13a8,8,0,1,0,8,8A8,8,0,0,0,24,13Zm14,8a14.58,14.58,0,0,1-.16,2H42V19H37.84A14.58,14.58,0,0,1,38,21Z"/></svg>