<svg xmlns="http://www.w3.org/2000/svg" viewBox="0 0 48 48"><path d="M32,27a2,2,0,1,1-2-2A2,2,0,0,1,32,27ZM18,25a2,2,0,1,0,2,2A2,2,0,0,0,18,25ZM38.06,12.77a18,18,0,1,1-28.12,0L6,8.83,8.83,6l3.94,3.94a18,18,0,0,1,22.46,0L39.17,6,42,8.83Zm-27.39,7a14.08,14.08,0,0,0,9.83-7.46s0,.05,0,.08A14,14,0,0,0,33,20a13.86,13.86,0,0,0,4.19-.66,14,14,0,0,0-26.52.4ZM38,24c0-.24,0-.48,0-.72A17.6,17.6,0,0,1,33,24a17.91,17.91,0,0,1-12.51-5.08,17.84,17.84,0,0,1-10.48,5S10,24,10,24a14,14,0,0,0,28,0Z"/><rect width="48" height="48" style="fill:none"/></svg>