<svg xmlns="http://www.w3.org/2000/svg" viewBox="0 0 48 48"><rect width="48" height="48" style="fill:none"/><path d="M32.27,15.73a13.22,13.22,0,0,0-1.78-3.39L33,9.83V14h4V3H26V7h4.17L27.66,9.51A13,13,0,1,0,15.73,32.27a13.22,13.22,0,0,0,1.78,3.39L16,37.17l-2.38-2.38-2.83,2.83L13.17,40,11,42.17,13.83,45,16,42.83,18.17,45,21,42.17,18.83,40l1.51-1.51A13,13,0,1,0,32.27,15.73ZM29,20a9,9,0,0,1-9,9c-.32,0-.64,0-.95-.05,0-.31-.05-.63-.05-.95a9,9,0,0,1,9-9c.32,0,.64,0,.95.05C29,19.36,29,19.68,29,20ZM11,20a9,9,0,0,1,16.49-5A13,13,0,0,0,15,27.49,9,9,0,0,1,11,20ZM28,37a9,9,0,0,1-7.49-4A13,13,0,0,0,33,20.51,9,9,0,0,1,28,37Z"/></svg>