<svg xmlns="http://www.w3.org/2000/svg" viewBox="0 0 48 48"><rect width="48" height="48" style="fill:none"/><path d="M36.66,12A2.07,2.07,0,0,0,35,14.11V21a1,1,0,0,1-1,1h0a1,1,0,0,1-1-1V10.11A2.07,2.07,0,0,0,31.34,8,2,2,0,0,0,29,10V21a1,1,0,0,1-1,1h0a1,1,0,0,1-1-1V8.11A2.07,2.07,0,0,0,25.34,6,2,2,0,0,0,23,8V21a1,1,0,0,1-1,1h0a1,1,0,0,1-1-1V11.11A2.07,2.07,0,0,0,19.34,9,2,2,0,0,0,17,11V26.22l-2.75-4.17A4.08,4.08,0,0,0,9,21l8,15a6,6,0,0,0,6,6H33a6,6,0,0,0,6-6V14A2,2,0,0,0,36.66,12ZM35,36a2,2,0,0,1-2,2H23a2,2,0,0,1-2-2V26H35Z"/></svg>