<svg xmlns="http://www.w3.org/2000/svg" viewBox="0 0 48 48"><path d="M20,10a5,5,0,1,1-5,5,5,5,0,0,1,5-5m0-4a9,9,0,1,0,9,9,9,9,0,0,0-9-9Zm0,24a22.86,22.86,0,0,1,13.19,4.16A2,2,0,0,1,34,35.78V38H6V35.78a2,2,0,0,1,.81-1.62A22.86,22.86,0,0,1,20,30m0-4A26.88,26.88,0,0,0,4.51,30.89,6,6,0,0,0,2,35.78V42H38V35.78a6,6,0,0,0-2.51-4.89A26.88,26.88,0,0,0,20,26ZM29.49,6.13a13,13,0,0,1,3.47,8c0,.28,0,.57,0,.86s0,.58,0,.86a13,13,0,0,1-3.47,8,9,9,0,0,0,0-17.74Zm14,24.76a26.76,26.76,0,0,0-8.77-4,30.58,30.58,0,0,1,6,4.43,4.19,4.19,0,0,1,1.3,3V42h4V35.77A6,6,0,0,0,43.49,30.89Z"/><rect width="48" height="48" style="fill:none"/></svg>