<svg xmlns="http://www.w3.org/2000/svg" viewBox="0 0 48 48"><rect width="48" height="48" style="fill:none"/><path d="M24,11a4,4,0,1,1-4,4,4,4,0,0,1,4-4m0-4a8,8,0,1,0,8,8,8,8,0,0,0-8-8Zm0,23a22.86,22.86,0,0,1,13.19,4.16A2,2,0,0,1,38,35.78V38H10V35.78a2,2,0,0,1,.81-1.62A22.86,22.86,0,0,1,24,30m0-4A26.88,26.88,0,0,0,8.51,30.89,6,6,0,0,0,6,35.78V42H42V35.78a6,6,0,0,0-2.51-4.89A26.88,26.88,0,0,0,24,26ZM8,15A15.8,15.8,0,0,1,9.71,7.85L6.13,6.06a19.83,19.83,0,0,0,0,17.88l3.58-1.79A15.8,15.8,0,0,1,8,15Zm6,0a9.89,9.89,0,0,1,1.07-4.47L11.49,8.74a13.9,13.9,0,0,0,0,12.52l3.58-1.79A9.89,9.89,0,0,1,14,15Zm26,0a15.8,15.8,0,0,1-1.71,7.15l3.58,1.79a19.83,19.83,0,0,0,0-17.88L38.29,7.85A15.8,15.8,0,0,1,40,15Zm-6,0a9.89,9.89,0,0,1-1.07,4.47l3.58,1.79a13.9,13.9,0,0,0,0-12.52l-3.58,1.79A9.89,9.89,0,0,1,34,15Z"/></svg>