<svg xmlns="http://www.w3.org/2000/svg" viewBox="0 0 48 48"><path d="M40.54,13.61l1.54-1.54L39.25,9.24l-1.52,1.52L36.56,9.59l1.52-1.52L35.25,5.24,16.4,24.09,5.24,35.25l2.83,2.83,1.52-1.53,1.17,1.18h0L9.24,39.25l2.83,2.83,1.54-1.55a9,9,0,0,0,12.32-.42h0a9,9,0,0,0,.52-12.19l1.48-1.47A9,9,0,0,0,40.54,13.61Zm-15.47,10-1.42,1.41-1.28-1.28,1.42-1.42Zm-2,13.63a5,5,0,0,1-7.12,0l-3.56-3.55,7.12-7.12,3.56,3.56a5,5,0,0,1,0,7.11ZM37.29,23.09a5,5,0,0,1-7.12,0l-3.56-3.56,7.12-7.11L37.29,16a5,5,0,0,1,0,7.12Z"/><rect width="48" height="48" style="fill:none"/></svg>