<svg xmlns="http://www.w3.org/2000/svg" viewBox="0 0 48 48"><path d="M29.51,15.66,39.17,6,42,8.83l-9.66,9.66A10.3,10.3,0,0,0,29.51,15.66Zm-.1,10.92L42,39.17,39.17,42,26.58,29.41a5.94,5.94,0,0,1-5.16,0l-2.26,2.26A7,7,0,0,1,13,42H6V35a7,7,0,0,1,10.33-6.16l2.26-2.26a5.94,5.94,0,0,1,0-5.16l-2.26-2.26a7,7,0,1,1,2.83-2.83l2.26,2.26a6,6,0,0,1,8,8ZM13,16a3,3,0,1,0-3-3A3,3,0,0,0,13,16Zm3,19a3,3,0,1,0-3,3A3,3,0,0,0,16,35Zm8-9a2,2,0,1,0-2-2A2,2,0,0,0,24,26Z"/><rect width="48" height="48" style="fill:none"/></svg>