<svg xmlns="http://www.w3.org/2000/svg" viewBox="0 0 48 48"><rect width="48" height="48" style="fill:none"/><path d="M32,14c0,.82-1.57,1.48-3.5,1.48S25,14.82,25,14s1.57-1.48,3.5-1.48S32,13.18,32,14Zm10,0V34c0,4.42-6,8-13.5,8S15,38.42,15,34V30H6V6H29C36.22,6.17,42,9.68,42,14ZM28.5,10c-5.89,0-9.5,2.59-9.5,4s3.61,4,9.5,4S38,15.41,38,14,34.39,10,28.5,10ZM15,26V14a5.75,5.75,0,0,1,1.82-4H10V26Zm23,8V19.68A19.09,19.09,0,0,1,28.5,22,19.09,19.09,0,0,1,19,19.68V34c0,1.41,3.61,4,9.5,4S38,35.41,38,34Z"/></svg>