<svg xmlns="http://www.w3.org/2000/svg" viewBox="0 0 48 48"><path d="M24,21a5,5,0,0,1,4.37,2.57,12.1,12.1,0,0,0,5,5A5,5,0,0,1,36,33.86,5,5,0,0,1,31.72,38,5.27,5.27,0,0,1,31,38a4.17,4.17,0,0,1-.61,0,54.25,54.25,0,0,0-12.82,0A4.17,4.17,0,0,1,17,38a5.27,5.27,0,0,1-.68,0,5,5,0,0,1-4.25-4.1,5,5,0,0,1,2.62-5.3,12.13,12.13,0,0,0,4.93-5A5,5,0,0,1,24,21m0-4a9,9,0,0,0-7.88,4.64A8.16,8.16,0,0,1,12.84,25a9,9,0,0,0,3,16.9A9.64,9.64,0,0,0,17,42a7.88,7.88,0,0,0,1.09-.07,50.41,50.41,0,0,1,11.86,0A7.88,7.88,0,0,0,31,42a9.64,9.64,0,0,0,1.19-.08A9,9,0,0,0,35.17,25a8.23,8.23,0,0,1-3.31-3.38A9,9,0,0,0,24,17ZM29,6c-1.66,0-3,1.79-3,4s1.34,4,3,4,3-1.79,3-4S30.66,6,29,6Zm10,7c-1.66,0-3,1.79-3,4s1.34,4,3,4,3-1.79,3-4S40.66,13,39,13ZM9,13c-1.66,0-3,1.79-3,4s1.34,4,3,4,3-1.79,3-4S10.66,13,9,13ZM19,6c-1.66,0-3,1.79-3,4s1.34,4,3,4,3-1.79,3-4S20.66,6,19,6Z"/><rect width="48" height="48" style="fill:none"/></svg>