<svg xmlns="http://www.w3.org/2000/svg" viewBox="0 0 48 48"><path d="M33,8.41A18,18,0,0,0,15,39.59,18,18,0,1,0,33,8.41ZM24,10a14,14,0,0,1,7,1.88A13.62,13.62,0,0,1,33.78,14H24a10,10,0,0,0-8.67,5,9,9,0,0,0-.53,1.08l-2.33-4A14.06,14.06,0,0,1,24,10Zm3,8.8a6,6,0,1,1-3-.8h0A6,6,0,0,1,27,18.8ZM10.45,20.53,15.34,29h0A10,10,0,0,0,24,34a9.71,9.71,0,0,0,1.21-.08l-2.33,4A13.81,13.81,0,0,1,17,36.12,14,14,0,0,1,10.45,20.53ZM36.12,31a14,14,0,0,1-8.35,6.48L32.66,29A10,10,0,0,0,32,18h4.64A14,14,0,0,1,36.12,31Z"/><rect width="48" height="48" style="fill:none"/></svg>