<svg xmlns="http://www.w3.org/2000/svg" viewBox="0 0 48 48"><rect width="48" height="48" style="fill:none"/><path d="M19,25a3,3,0,1,1-3-3A3,3,0,0,1,19,25Zm13-3a3,3,0,1,0,3,3A3,3,0,0,0,32,22Zm9.23,1.94A11.18,11.18,0,0,1,42,28c0,7.73-8.06,14-18,14S6,35.73,6,28a11.18,11.18,0,0,1,.77-4.06A6,6,0,0,1,12,15a6,6,0,0,1,3.07.85A21.73,21.73,0,0,1,22,14.09V7.36l4-2.94,4.24,1.32a5,5,0,1,1-1.18,3.82L26,8.61v5.48a21.73,21.73,0,0,1,6.93,1.76A6,6,0,0,1,42,21,6,6,0,0,1,41.23,23.94ZM33,9a1,1,0,1,0,1-1A1,1,0,0,0,33,9Zm3.81,14.63L37.74,22A2,2,0,0,0,36,19a2,2,0,0,0-1,.29L33.2,20.35l-1.9-.84a18.4,18.4,0,0,0-14.6,0l-1.9.84L13,19.29A2,2,0,0,0,12,19a2,2,0,0,0-1.74,3l.93,1.65-.69,1.76A7.28,7.28,0,0,0,10,28c0,5.42,6.41,10,14,10s14-4.58,14-10a7.28,7.28,0,0,0-.5-2.61ZM24,36a12.66,12.66,0,0,0,8.79-3.21L30,30a8.86,8.86,0,0,1-6,2,8.86,8.86,0,0,1-6-2l-2.82,2.82A12.66,12.66,0,0,0,24,36Z"/></svg>