<svg xmlns="http://www.w3.org/2000/svg" viewBox="0 0 48 48"><path d="M15,8.41A18,18,0,1,0,39.59,15,18,18,0,0,0,15,8.41ZM38,23.79a17.94,17.94,0,0,0-7.55-.1A17.62,17.62,0,0,0,29.2,21a18.43,18.43,0,0,0-1.71-2.42A18.16,18.16,0,0,0,31.18,12,14,14,0,0,1,38,23.79ZM27.46,10.45a14.12,14.12,0,0,1-2.83,5.32,18,18,0,0,0-8.19-3.53c.19-.12.37-.25.56-.36A13.92,13.92,0,0,1,27.46,10.45Zm-5.94,8c-.18.11-.34.23-.52.33a13.86,13.86,0,0,1-10.46,1.41,13.94,13.94,0,0,1,1.94-4.13A14,14,0,0,1,21.52,18.47ZM10,24.21a17.89,17.89,0,0,0,13-1.94c.53-.31,1.05-.64,1.54-1A13.12,13.12,0,0,1,25.73,23a14.29,14.29,0,0,1,.9,1.9A17.87,17.87,0,0,0,16.82,36,14,14,0,0,1,10,24.21ZM25.1,37.94a13.93,13.93,0,0,1-4.55-.39A13.92,13.92,0,0,1,27,29.2c.18-.11.37-.19.55-.28A14.06,14.06,0,0,1,25.1,37.94Zm5.31-1.51a18,18,0,0,0,1-8.86,14.08,14.08,0,0,1,6,.21A14,14,0,0,1,31,36.12,6.63,6.63,0,0,1,30.41,36.43Z"/><rect width="48" height="48" style="fill:none"/></svg>