<svg xmlns="http://www.w3.org/2000/svg" viewBox="0 0 48 48"><rect width="48" height="48" style="fill:none"/><path d="M30,2a25.59,25.59,0,0,0-7.47,11.11A10.82,10.82,0,0,0,18,14.81V7l-.07.07A18,18,0,1,0,42,24C42,12.12,32.38,8.75,30,2Zm1,22a7,7,0,0,1-7,7,6.9,6.9,0,0,1-4.41-1.59L25,24l-5-5.73A6.93,6.93,0,0,1,24,17,7,7,0,0,1,31,24ZM10,24a13.92,13.92,0,0,1,4-9.77V17.5l5.53,6.32-7.47,7.46A13.91,13.91,0,0,1,10,24ZM24,38a13.9,13.9,0,0,1-9.37-3.63l2.12-2.12a11,11,0,1,0,10-18.89,20.28,20.28,0,0,1,2.34-3.8c2.49,2.38,3.37,3,4.89,4.69A13.85,13.85,0,0,1,38,24,14,14,0,0,1,24,38Z"/></svg>