<svg xmlns="http://www.w3.org/2000/svg" viewBox="0 0 48 48"><rect width="48" height="48" style="fill:none"/><path d="M42,19.5a13.46,13.46,0,0,0-3.46-9L39,4,33,6.78A13.31,13.31,0,0,0,28.5,6h-9A13.31,13.31,0,0,0,15,6.78L9,4l.46,6.49a13.49,13.49,0,0,0,7.27,22.22A9,9,0,0,0,15.06,37a5.94,5.94,0,0,1-3.41-1.85c-2.5-2.76-4.48-3.7-5.65-4v4.36a12.17,12.17,0,0,1,2.68,2.33A9.91,9.91,0,0,0,15,41v3h4V38a5,5,0,0,1,10,0v6h4V38a9,9,0,0,0-1.73-5.29A13.49,13.49,0,0,0,42,19.5ZM28.5,29h-9a9.5,9.5,0,0,1,0-19h9a9.5,9.5,0,0,1,0,19Z"/></svg>