<svg xmlns="http://www.w3.org/2000/svg" viewBox="0 0 48 48"><rect width="48" height="48" style="fill:none"/><path d="M26.84,18.34,24,21.17,21.19,24l-2.85,2.84h0a4,4,0,1,1-1.79-6.67l-2.29,2.29a2,2,0,1,0,2.66,3l0,0,8.3-8.3a10.2,10.2,0,0,1,13.09-1.26,9.9,9.9,0,0,1,3.68,5C42,14,35.48,8.68,28.8,10.5a14,14,0,0,0-6.2,3.6l-3,3a8,8,0,1,0,1.58,12.53h0L24,26.83,26.84,24l2.83-2.83a4,4,0,1,1,1.79,6.67l2.29-2.29a2,2,0,1,0-2.66-3l0,0-8.3,8.3A10.2,10.2,0,0,1,9.68,32.13a9.9,9.9,0,0,1-3.68-5C6,34,12.52,39.32,19.2,37.5a14,14,0,0,0,6.2-3.6l3-3a8,8,0,1,0-1.58-12.53Z"/></svg>