<svg xmlns="http://www.w3.org/2000/svg" viewBox="0 0 48 48"><rect width="48" height="48" style="fill:none"/><path d="M40.41,7.59A6.28,6.28,0,0,0,35.82,6h0a19.4,19.4,0,0,0-8.4,2.43A15.45,15.45,0,0,0,24,8,16,16,0,0,0,8,24a15.39,15.39,0,0,0,.38,3.42c-2.81,5.53-3.31,10.47-.79,13a6.28,6.28,0,0,0,4.59,1.64,19.44,19.44,0,0,0,8.4-2.43A15.94,15.94,0,0,0,38.83,30H34.38A12,12,0,0,1,14.6,31.42a39.69,39.69,0,0,0-1.83,4,17,17,0,0,0,2.62,2.08,11.22,11.22,0,0,1-3.21.58,2.73,2.73,0,0,1-1.76-.47c-.62-.62-.75-2.73.42-5.88a37.1,37.1,0,0,1,8.49-12.37C25.8,12.85,32.28,10,35.82,10a2.73,2.73,0,0,1,1.76.47c.56.56.71,2.32-.11,5a17,17,0,0,0-2.08-2.62,42,42,0,0,0-4,1.82A12.05,12.05,0,0,1,35.82,22H21.47A41.07,41.07,0,0,0,18,26H39.86A16.52,16.52,0,0,0,40,24a16.17,16.17,0,0,0-.38-3.43C42.42,15.05,42.93,10.11,40.41,7.59ZM16.5,16.5a49.56,49.56,0,0,0-4.15,4.72,12,12,0,0,1,8.88-8.88A48.59,48.59,0,0,0,16.5,16.5Z"/></svg>