<svg xmlns="http://www.w3.org/2000/svg" viewBox="0 0 48 48"><rect width="48" height="48" style="fill:none"/><path d="M33,5a9.86,9.86,0,0,1-2.8,6.2A9.83,9.83,0,0,1,24,14a9.6,9.6,0,0,1,9-9ZM30.88,18a6.17,6.17,0,0,0-3.25.94,6.51,6.51,0,0,1-6.87,0A6.14,6.14,0,0,0,17.51,18h-.33c-3.24.17-6.18,4-6.18,8,0,4.22,1.41,7.5,4.72,11,1.92,2,2.18,2,2.74,2a2.35,2.35,0,0,0,.87-.16,13.63,13.63,0,0,1,9.74,0,2.27,2.27,0,0,0,.86.16c.56,0,.82,0,2.76-2A18.56,18.56,0,0,0,36,32.32,10.1,10.1,0,0,1,31.66,24a10.2,10.2,0,0,1,1.57-5.42,5,5,0,0,0-2-.57h-.34m0-4,.55,0A10.06,10.06,0,0,1,39,18.55,6,6,0,0,0,35.66,24,5.89,5.89,0,0,0,41,30a19.81,19.81,0,0,1-5.42,9.76c-2,2.09-3.27,3.26-5.65,3.26a6.52,6.52,0,0,1-2.3-.42,9.54,9.54,0,0,0-6.87,0,6.48,6.48,0,0,1-2.3.42c-2.37,0-3.65-1.17-5.64-3.26C9.23,36,7,31.76,7,26s4.33-11.69,10-12l.54,0a10.11,10.11,0,0,1,5.37,1.55,2.52,2.52,0,0,0,2.63,0A10.11,10.11,0,0,1,30.88,14Z"/></svg>