<svg xmlns="http://www.w3.org/2000/svg" viewBox="0 0 48 48"><rect width="48" height="48" style="fill:none"/><path d="M30,7a7,7,0,0,0-4.81,1.93,8,8,0,1,0,0,10.14A7,7,0,1,0,30,7ZM19,18a4,4,0,1,1,4-4A4,4,0,0,1,19,18Zm11-1a3,3,0,1,1,3-3A3,3,0,0,1,30,17Zm5.48,5h-11a6.52,6.52,0,0,0-6,4l-5-2.93A5,5,0,0,0,6,27.39V37a5,5,0,0,0,7.54,4.31l5.1-3A6.51,6.51,0,0,0,24.52,42h11A6.52,6.52,0,0,0,42,35.48v-7A6.52,6.52,0,0,0,35.48,22Zm-24,15.84A1,1,0,0,1,11,38a1,1,0,0,1-1-1V27.39a1,1,0,0,1,1-1,1,1,0,0,1,.5.15L18,30.35V34ZM38,35.48A2.52,2.52,0,0,1,35.48,38h-11A2.52,2.52,0,0,1,22,35.48v-7A2.52,2.52,0,0,1,24.52,26h11A2.52,2.52,0,0,1,38,28.52Z"/></svg>