<svg xmlns="http://www.w3.org/2000/svg" viewBox="0 0 48 48"><rect width="48" height="48" style="fill:none"/><path d="M39.68,25.34a9.12,9.12,0,0,0-2-2.33A1.94,1.94,0,0,0,38,22a2,2,0,0,0-1.08-1.77A12.29,12.29,0,0,0,37,19a13,13,0,1,0-26,0,9.89,9.89,0,0,0,.09,1.23A2,2,0,0,0,10.29,23a9.11,9.11,0,0,0-1.93,2.34c-2,3.54-1.53,7.66,1.14,9.21a4.82,4.82,0,0,0,.66.3A4.9,4.9,0,0,0,10,36c0,3.31,3.59,6,8,6a9.26,9.26,0,0,0,6-2,9.3,9.3,0,0,0,6,2c4.42,0,8-2.69,8-6a4.71,4.71,0,0,0-.14-1.12,4.59,4.59,0,0,0,.5-.24C41.13,33,41.72,28.88,39.68,25.34ZM24,10a9,9,0,0,1,9,9,9.16,9.16,0,0,1-.39,2.64A27.82,27.82,0,0,1,24,23a27.8,27.8,0,0,1-8.6-1.36A8.83,8.83,0,0,1,15,19,9,9,0,0,1,24,10ZM36.37,31.18a.86.86,0,0,1-.38.08,3.3,3.3,0,0,1-2.19-1.21,10,10,0,0,1-2,4.21C33.2,34.67,34,35.49,34,36c0,.71-1.51,2-4,2a5,5,0,0,1-3.65-1.32,8.75,8.75,0,0,1-4.69,0A5,5,0,0,1,18,38c-2.48,0-4-1.29-4-2,0-.51.82-1.33,2.21-1.74a10,10,0,0,1-2.07-4.68,3.59,3.59,0,0,1-2.4,1.55.4.4,0,0,1-.25-.05c-.42-.24-.74-1.91.32-3.74a4.84,4.84,0,0,1,2.07-2c1,.34,2.06.61,3.12.85v4.4h4V26.85c1,.09,2,.15,3,.15a32,32,0,0,0,10-1.62,4.39,4.39,0,0,1,2.16,2C37.27,29.17,36.91,30.86,36.37,31.18Z"/></svg>