<svg xmlns="http://www.w3.org/2000/svg" viewBox="0 0 48 48"><path d="M43,24c0-2.66-3.09-5-7.82-6.46,1.11-4.82.62-8.67-1.68-10a3.75,3.75,0,0,0-1.91-.49c-2.15,0-4.86,1.48-7.59,4-2.73-2.54-5.44-4-7.59-4a3.75,3.75,0,0,0-1.91.49c-2.3,1.32-2.79,5.17-1.68,10C8.09,19,5,21.34,5,24s3.09,5,7.82,6.46c-1.11,4.82-.62,8.67,1.68,10a3.75,3.75,0,0,0,1.91.49c2.15,0,4.86-1.48,7.59-4,2.73,2.54,5.44,4,7.59,4a3.75,3.75,0,0,0,1.91-.49c2.3-1.32,2.79-5.17,1.68-10C39.91,29,43,26.66,43,24ZM31.3,16.61c-.9-.15-1.84-.28-2.81-.38-.57-.79-1.16-1.54-1.75-2.25,2.08-1.92,3.82-2.84,4.74-2.91C31.84,11.78,32,13.76,31.3,16.61Zm-5,11.32c-.73,0-3.81,0-4.54,0-.4-.61-1.94-3.28-2.27-3.93.33-.65,1.87-3.32,2.27-3.93.73,0,3.81,0,4.54,0,.4.61,1.94,3.28,2.27,3.93C28.21,24.65,26.67,27.32,26.27,27.93ZM16.52,11.07c.92.07,2.66,1,4.74,2.91-.59.71-1.18,1.46-1.75,2.25-1,.1-1.91.23-2.81.38C16.05,13.76,16.16,11.78,16.52,11.07ZM9.05,24c.43-.67,2.09-1.76,4.9-2.63.32.86.68,1.74,1.08,2.63-.4.89-.76,1.77-1.08,2.63C11.14,25.76,9.48,24.67,9.05,24Zm7.65,7.39c.9.15,1.84.28,2.81.38.57.79,1.16,1.54,1.75,2.25-2.05,1.89-3.79,2.81-4.74,2.91C16.16,36.21,16.05,34.24,16.7,31.39Zm14.78,5.54c-.92-.07-2.66-1-4.74-2.91.59-.71,1.18-1.46,1.75-2.25,1-.1,1.91-.23,2.81-.38C32,34.24,31.84,36.22,31.48,36.93Zm2.57-10.3c-.32-.86-.68-1.74-1.08-2.63.4-.89.76-1.77,1.08-2.63,2.81.87,4.47,2,4.9,2.63C38.52,24.67,36.86,25.76,34.05,26.63Z"/><rect width="48" height="48" style="fill:none"/></svg>