<svg xmlns="http://www.w3.org/2000/svg" viewBox="0 0 48 48"><rect width="48" height="48" style="fill:none"/><path d="M8,24a3,3,0,1,1-3-3A3,3,0,0,1,8,24ZM36.1,9.05A3,3,0,1,0,32,10.14,3,3,0,0,0,36.1,9.05ZM30.9,42A3,3,0,1,0,32,37.86,3,3,0,0,0,30.9,42Zm-15-7.84a13,13,0,0,1,0-20.22l-2-3.49a17,17,0,0,0-6.28,9.33,5,5,0,0,1,0,8.54,17,17,0,0,0,6.28,9.33ZM35.91,11.9a5,5,0,0,1-7.39-4.28,16.85,16.85,0,0,0-11.23.77l2,3.5A12.77,12.77,0,0,1,24,11,13,13,0,0,1,36.83,22h4A17,17,0,0,0,35.91,11.9ZM31,36.12a5,5,0,0,1,4.91,0,17,17,0,0,0,5-10.1h-4A13,13,0,0,1,24,37a12.77,12.77,0,0,1-4.68-.89l-2,3.5a16.85,16.85,0,0,0,11.23.77A5,5,0,0,1,31,36.12Z"/></svg>