<svg xmlns="http://www.w3.org/2000/svg" viewBox="0 0 48 48"><path d="M34,26a2,2,0,1,1-2-2A2,2,0,0,1,34,26ZM24,24a2,2,0,1,0,2,2A2,2,0,0,0,24,24ZM20,8C12.27,8,6,13.37,6,20a10.77,10.77,0,0,0,2.24,6.51L6,31l4.46-2.23A13,13,0,0,0,12.17,30,12.62,12.62,0,0,1,12,28a12.45,12.45,0,0,1,.34-2.87A7.08,7.08,0,0,1,10,20c0-4.41,4.49-8,10-8a11.39,11.39,0,0,1,6.67,2.06c.44,0,.88-.06,1.33-.06a18.18,18.18,0,0,1,4.47.56A14.38,14.38,0,0,0,20,8ZM42,39l-4.46-2.23A15.27,15.27,0,0,1,28,40c-7.73,0-14-5.37-14-12s6.27-12,14-12,14,5.37,14,12a10.74,10.74,0,0,1-2.25,6.51ZM38,28c0-4.41-4.49-8-10-8s-10,3.59-10,8,4.49,8,10,8S38,32.41,38,28Z"/><rect width="48" height="48" style="fill:none"/></svg>