<svg xmlns="http://www.w3.org/2000/svg" viewBox="0 0 48 48"><path d="M31.45,22.54a5.94,5.94,0,0,0-1.35-3.37A6.51,6.51,0,0,0,25,17.1a8.62,8.62,0,0,0-.87,0,5.61,5.61,0,0,0-1.27-1.67,6.11,6.11,0,0,0-4.11-1.43c-3.16,0-6.91,1.85-9.82,5.17A15,15,0,0,0,5,29H5c0,5.52,6.72,10,15,10s15-4.48,15-10A8.36,8.36,0,0,0,31.45,22.54ZM20,35c-6.29,0-11-3.17-11-6H9a10.51,10.51,0,0,1,2.94-7.14c2.46-2.81,5.21-3.81,6.81-3.81a2.19,2.19,0,0,1,1.47.44c.68.6.9,2.09.39,3.93A9.31,9.31,0,0,1,25,21.1a2.84,2.84,0,0,1,2.06.68,3.19,3.19,0,0,1,.23,2.85C29.59,25.81,31,27.45,31,29,31,31.83,26.3,35,20,35ZM43,18h0a2,2,0,0,1-4,0h0a8,8,0,0,0-8-8,2,2,0,0,1,0-4A12,12,0,0,1,43,18Zm-6,0h0a2,2,0,0,1-4,0h0a2,2,0,0,0-2-2h0a2,2,0,0,1,0-4h0A6,6,0,0,1,37,18Z"/><rect width="48" height="48" style="fill:none"/></svg>