<svg xmlns="http://www.w3.org/2000/svg" viewBox="0 0 48 48"><rect width="48" height="48" style="fill:none"/><path d="M23,16a6,6,0,0,1,6,6V32H25V22a2,2,0,0,0-2-2H17V32H13V16Zm12,0H31V32h4ZM23,22H19V32h4Zm1-12a29.94,29.94,0,0,0-8.11,1.11,6.93,6.93,0,0,0-4.78,4.78,30.18,30.18,0,0,0,0,16.22,6.93,6.93,0,0,0,4.78,4.78,30.18,30.18,0,0,0,16.22,0,6.93,6.93,0,0,0,4.78-4.78A29.94,29.94,0,0,0,38,24a30.07,30.07,0,0,0-1-7.68A7.52,7.52,0,0,0,31.68,11,30.07,30.07,0,0,0,24,10m0-4a34.18,34.18,0,0,1,8.7,1.12,11.47,11.47,0,0,1,8.18,8.18A34.18,34.18,0,0,1,42,24a34,34,0,0,1-1.26,9.19,11,11,0,0,1-7.55,7.55,34.14,34.14,0,0,1-18.38,0,11,11,0,0,1-7.55-7.55,34.14,34.14,0,0,1,0-18.38,11,11,0,0,1,7.55-7.55A34,34,0,0,1,24,6Z"/></svg>