<svg xmlns="http://www.w3.org/2000/svg" viewBox="0 0 48 48"><rect width="48" height="48" style="fill:none"/><path d="M35,19h0a.13.13,0,0,0,0-.06A7,7,0,0,0,27.38,7.52a8.49,8.49,0,0,0-13.56-.27A6.84,6.84,0,0,0,12,7,7,7,0,0,0,7,18.94a.13.13,0,0,0,0,.06H7V33.83A4.36,4.36,0,0,0,6,36.5C6,40.64,12.72,44,21,44s15-3.36,15-7.5a4.36,4.36,0,0,0-1-2.67ZM12,11h.14A8.18,8.18,0,0,0,12,12.5a8.46,8.46,0,0,0,2.49,6l2.83-2.83A4.46,4.46,0,0,1,16,12.5a4.5,4.5,0,0,1,9,0h4a7.81,7.81,0,0,0-.11-1.28A3,3,0,0,1,30,11a3,3,0,1,1-2.12,5.12L25.05,19a6.94,6.94,0,0,0,3,1.77A18.44,18.44,0,0,1,21,22c-4.46,0-7.53-1.25-9-2.32V17a3,3,0,0,1,0-6Zm9,29c-7,0-10.71-2.62-11-3.5a2.6,2.6,0,0,1,1-1V23.74A21.3,21.3,0,0,0,21,26a21.3,21.3,0,0,0,10-2.26V35.48a2.6,2.6,0,0,1,1,1C31.71,37.38,28,40,21,40ZM43,26a6,6,0,0,1-6,6V28a2,2,0,0,0,0-4V20A6,6,0,0,1,43,26Z"/></svg>