<svg xmlns="http://www.w3.org/2000/svg" viewBox="0 0 48 48"><rect width="48" height="48" style="fill:none"/><path d="M18,10a2,2,0,0,1,2,2,1.94,1.94,0,0,1-.43,1.23L17.37,16l2.51,2.52,9.58,9.58L32,30.63l2.79-2.2a2,2,0,0,1,3.13.93A2,2,0,0,1,36,32H34.46A2.46,2.46,0,0,0,32,34.46v1.43A2.08,2.08,0,0,1,30.34,38,2,2,0,0,1,28,36a1.94,1.94,0,0,1,.43-1.23L30.63,32l-2.51-2.52-9.58-9.58L16,17.37l-2.79,2.2a2,2,0,0,1-3.13-.93A2,2,0,0,1,12,16h1.54A2.46,2.46,0,0,0,16,13.54V12a2,2,0,0,1,2-2m0-4a6,6,0,0,0-6,6,6,6,0,0,0,0,12,5.94,5.94,0,0,0,3.71-1.29l9.58,9.58A5.94,5.94,0,0,0,24,36a6,6,0,0,0,12,0,6,6,0,0,0,0-12,5.94,5.94,0,0,0-3.71,1.29l-9.58-9.58A5.94,5.94,0,0,0,24,12a6,6,0,0,0-6-6Z"/></svg>