<svg xmlns="http://www.w3.org/2000/svg" viewBox="0 0 48 48"><rect width="48" height="48" style="fill:none"/><path d="M37.08,16.52,42,8,38.54,6l-5.29,9.15A35.85,35.85,0,0,0,24,14c-9.94,0-18,3.58-18,8a18,18,0,0,0,9.06,15.61A1.76,1.76,0,0,0,15,38c0,2.21,4,4,9,4s9-1.79,9-4a1.76,1.76,0,0,0-.06-.39A18,18,0,0,0,42,22C42,19.88,40.12,18,37.08,16.52ZM24,18a32.57,32.57,0,0,1,7.18.75l-2.87,5a23.78,23.78,0,0,0,5.36-1.29L35.08,20A6.35,6.35,0,0,1,38,22c-.57,1.18-5.4,4-14,4s-13.41-2.82-14-4C10.59,20.82,15.42,18,24,18Zm0,18a14,14,0,0,1-12.82-8.39A32,32,0,0,0,24,30a32,32,0,0,0,12.82-2.39A14,14,0,0,1,24,36Z"/></svg>