<svg xmlns="http://www.w3.org/2000/svg" viewBox="0 0 48 48"><rect width="48" height="48" style="fill:none"/><path d="M36.53,11.47c3.1,3.1,1.41,11.7-6,19.09s-16,9.07-19.09,6-1.41-11.7,6-19.09,16-9.07,19.09-6m2.83-2.83c-5.19-5.18-16.26-2.51-24.74,6s-11.16,19.55-6,24.74,16.26,2.51,24.74-6,11.16-19.55,6-24.74ZM16,23.13a23,23,0,0,0-2,3.46,14.07,14.07,0,0,1,7.48,7.48,22.54,22.54,0,0,0,3.46-2,18.24,18.24,0,0,0-3.64-5.28A18.24,18.24,0,0,0,16,23.13Zm5.19-5.65c-.64.54-1.28,1.11-1.91,1.75-.45.44-.86.89-1.26,1.34A14,14,0,0,1,27.43,30c.45-.4.9-.81,1.34-1.26.64-.63,1.21-1.27,1.75-1.91a17.92,17.92,0,0,0-9.38-9.38Zm6.77-4.1a20.84,20.84,0,0,0-4.47,2.35,13.93,13.93,0,0,1,8.83,8.83,20.84,20.84,0,0,0,2.35-4.47,17.45,17.45,0,0,0-6.71-6.71Z"/></svg>