<svg xmlns="http://www.w3.org/2000/svg" viewBox="0 0 48 48"><rect width="48" height="48" style="fill:none"/><path d="M27.6,12.32l2.21,2.61.46.54.62.35A14,14,0,0,1,38,28a13.84,13.84,0,0,1-3.29,9H13.29A13.84,13.84,0,0,1,10,28a14,14,0,0,1,7.11-12.18l.62-.35.46-.54,2.21-2.61a10.29,10.29,0,0,0,7.2,0m.84-5.19a6.28,6.28,0,0,1-8.88,0l-4.42,5.21A18,18,0,0,0,11.57,41H36.43a18,18,0,0,0-3.57-28.66L28.44,7.13ZM24,23a15.9,15.9,0,0,0,9.06-2.82,12.17,12.17,0,0,0-3.16-2.62l-.11-.06a11.92,11.92,0,0,1-11.58,0l-.11.06a12.17,12.17,0,0,0-3.16,2.62A15.9,15.9,0,0,0,24,23Z"/></svg>