<svg xmlns="http://www.w3.org/2000/svg" viewBox="0 0 48 48"><rect width="48" height="48" style="fill:none"/><path d="M21,28a3,3,0,1,1-3-3A3,3,0,0,1,21,28Zm9-3a3,3,0,1,0,3,3A3,3,0,0,0,30,25Zm12-1A18,18,0,1,1,8.1,15.57a16.38,16.38,0,0,1-2-9.5C6.57,6,7.08,6,7.58,6a16.44,16.44,0,0,1,8,2.09,18,18,0,0,1,16.84,0,16.44,16.44,0,0,1,8-2.09c.5,0,1,0,1.51.07a16.38,16.38,0,0,1-2,9.5A17.88,17.88,0,0,1,42,24ZM10.3,10.3a12.36,12.36,0,0,0,2.58,5.23,14.09,14.09,0,0,0-2.49,5.22A11.9,11.9,0,0,1,18,18H30a11.9,11.9,0,0,1,7.61,2.75,14.09,14.09,0,0,0-2.49-5.22A12.36,12.36,0,0,0,37.7,10.3a12.19,12.19,0,0,0-5.23,2.58,13.9,13.9,0,0,0-16.94,0A12.19,12.19,0,0,0,10.3,10.3ZM37.56,27.42A8,8,0,0,0,30,22H18a8,8,0,0,0-7.56,5.42,14,14,0,0,0,27.12,0Z"/></svg>