<svg xmlns="http://www.w3.org/2000/svg" viewBox="0 0 48 48"><rect width="48" height="48" style="fill:none"/><path d="M30,15a10.9,10.9,0,0,0-4.13.81C24.62,13.68,21.2,8.39,16.11,5L13.89,8.33c4.5,3,7.61,7.94,8.6,9.64a11.16,11.16,0,0,0-2.39,3.26A11.16,11.16,0,0,0,18,21a10.76,10.76,0,0,0-1.71.15A51.11,51.11,0,0,0,11.71,10L8.29,12a48.71,48.71,0,0,1,4.22,10.44A11,11,0,1,0,27.89,36.79,10.56,10.56,0,0,0,30,37a11,11,0,0,0,0-22ZM18,39a7,7,0,0,1,0-14,7.32,7.32,0,0,1,1.05.09A9.08,9.08,0,0,0,19,26a11,11,0,0,0,5.16,9.31A7,7,0,0,1,18,39Zm12-6a7,7,0,1,1,7-7A7,7,0,0,1,30,33Z"/></svg>