<svg xmlns="http://www.w3.org/2000/svg" viewBox="0 0 48 48"><rect width="48" height="48" style="fill:none"/><path d="M41,29.87a17.73,17.73,0,0,0,0-11.74V18h0A18,18,0,0,0,30,7.05V7h-.13A17.73,17.73,0,0,0,18.13,7H18v0A18,18,0,0,0,7.05,18H7v.13A17.73,17.73,0,0,0,7,29.87V30h0A18,18,0,0,0,18,41v0h.13a17.73,17.73,0,0,0,11.74,0H30v0A18,18,0,0,0,41,30h0ZM10,24a14.71,14.71,0,0,1,.16-2h5.07a8.81,8.81,0,0,0,0,4H10.16A14.58,14.58,0,0,1,10,24Zm9,0a5,5,0,1,1,5,5A5,5,0,0,1,19,24Zm13.77-2h5.07A14.71,14.71,0,0,1,38,24a14.58,14.58,0,0,1-.16,2H32.77a8.81,8.81,0,0,0,0-4Zm3.86-4H30.69a7.49,7.49,0,0,0-.69-.69V11.37A14,14,0,0,1,36.63,18ZM26,10.16v5.07a8.81,8.81,0,0,0-4,0V10.16A14.71,14.71,0,0,1,24,10,14.71,14.71,0,0,1,26,10.16Zm-8,1.21v5.94a7.49,7.49,0,0,0-.69.69H11.37A14,14,0,0,1,18,11.37ZM11.37,30h5.94a7.49,7.49,0,0,0,.69.69v5.94A14,14,0,0,1,11.37,30ZM22,37.84V32.77a8.81,8.81,0,0,0,4,0v5.07A14.71,14.71,0,0,1,24,38,14.71,14.71,0,0,1,22,37.84Zm8-1.21V30.69a7.49,7.49,0,0,0,.69-.69h5.94A14,14,0,0,1,30,36.63Z"/></svg>