<svg xmlns="http://www.w3.org/2000/svg" viewBox="0 0 48 48"><rect width="48" height="48" style="fill:none"/><path d="M19.14,11.77a6.7,6.7,0,0,1,1.69.48A9.16,9.16,0,0,0,24,13a9.16,9.16,0,0,0,3.17-.75,6.7,6.7,0,0,1,1.69-.48H29c.31.1.88,1,1.22,1.48a8.94,8.94,0,0,0,2.06,2.41,8.82,8.82,0,0,0,3,1.23,5.2,5.2,0,0,1,1.77.69,5.37,5.37,0,0,1,.11,1.88,9.07,9.07,0,0,0,.26,3.2A8.64,8.64,0,0,0,39,25.34l.15.2-1.45,1-1,.72-.43,1.18a13,13,0,0,1-24.4,0l-.43-1.18-1-.72-1.45-1,.16-.2a8.81,8.81,0,0,0,1.63-2.67,9.07,9.07,0,0,0,.26-3.2,5.3,5.3,0,0,1,.11-1.87,5,5,0,0,1,1.77-.7,8.7,8.7,0,0,0,2.95-1.23,8.76,8.76,0,0,0,2.06-2.41c.34-.51.91-1.38,1.22-1.48h.09m0-4a4.36,4.36,0,0,0-1.32.2,6.77,6.77,0,0,0-3.33,3.09,6.69,6.69,0,0,1-1.07,1.38,6.55,6.55,0,0,1-1.67.6,6.74,6.74,0,0,0-3.93,2.2A6.67,6.67,0,0,0,7,19.64a6.26,6.26,0,0,1-.07,1.8,6.63,6.63,0,0,1-1,1.4A6.73,6.73,0,0,0,4,27l4.05,2.83a17,17,0,0,0,31.9,0L44,27a6.78,6.78,0,0,0-1.92-4.16,6.27,6.27,0,0,1-1-1.4,6.26,6.26,0,0,1-.07-1.8,6.67,6.67,0,0,0-.87-4.4A6.74,6.74,0,0,0,36.25,13a6.55,6.55,0,0,1-1.67-.6,6.69,6.69,0,0,1-1.07-1.38A6.77,6.77,0,0,0,30.18,8a4.36,4.36,0,0,0-1.32-.2,9,9,0,0,0-3.08.73A6.24,6.24,0,0,1,24,9a6.24,6.24,0,0,1-1.78-.5,9,9,0,0,0-3.08-.73ZM24,22a15,15,0,0,1,10.76,4.57,7.07,7.07,0,0,0,.33-5,18.92,18.92,0,0,0-22.18,0,7.07,7.07,0,0,0,.33,5A15,15,0,0,1,24,22Z"/></svg>