<svg xmlns="http://www.w3.org/2000/svg" viewBox="0 0 48 48"><rect width="48" height="48" style="fill:none"/><path d="M14.5,12.5a2,2,0,1,1-2-2A2,2,0,0,1,14.5,12.5ZM43,25.91l-10.69,6.4L25.91,43a17.65,17.65,0,0,1-4.42-10.59,17.57,17.57,0,0,1-11.33-5.1A18.21,18.21,0,0,1,6.75,6.75,19,19,0,0,1,14.7,5,17.57,17.57,0,0,1,32.41,21.49,17.65,17.65,0,0,1,43,25.91ZM9.44,18.25a14,14,0,0,0,8.81-8.79A14.39,14.39,0,0,0,14.7,9a15.15,15.15,0,0,0-4.88.82A14.5,14.5,0,0,0,9.44,18.25ZM35.07,26a14.14,14.14,0,0,0-2.93-.51l-3.48-.24-.24-3.48A13.52,13.52,0,0,0,24.48,13,14.1,14.1,0,0,0,22,11,18,18,0,0,1,11,22a13.3,13.3,0,0,0,2,2.53,13.52,13.52,0,0,0,8.78,3.94l3.48.24.24,3.48A14.14,14.14,0,0,0,26,35.07l2.89-4.82.51-.86.86-.51Z"/></svg>