<svg xmlns="http://www.w3.org/2000/svg" viewBox="0 0 48 48"><rect width="48" height="48" style="fill:none"/><path d="M41,17a7,7,0,0,0-12-4.89,7,7,0,0,0-2.91-1.79A3,3,0,0,1,29,8V4a7,7,0,0,0-7,6.28,7.06,7.06,0,0,0-3,1.83,7,7,0,1,0-6.26,11.77,7,7,0,0,0,5,10,7,7,0,1,0,12.52,0,7,7,0,0,0,5-10A7,7,0,0,0,41,17ZM24,14a3,3,0,1,1-3,3A3,3,0,0,1,24,14ZM11,17a3,3,0,1,1,3,3A3,3,0,0,1,11,17Zm5,10a3,3,0,1,1,3,3A3,3,0,0,1,16,27Zm8,13a3,3,0,1,1,3-3A3,3,0,0,1,24,40Zm5-10a3,3,0,1,1,3-3A3,3,0,0,1,29,30Zm5-10a3,3,0,1,1,3-3A3,3,0,0,1,34,20Z"/></svg>