<svg xmlns="http://www.w3.org/2000/svg" viewBox="0 0 48 48"><rect width="48" height="48" style="fill:none"/><path d="M42,40H6V36H42ZM28,12H20a10,10,0,0,0-9.16,6H37.16A10,10,0,0,0,28,12m0-4A14,14,0,0,1,42,22H6A14,14,0,0,1,20,8Zm8,17c-2.51,0-3.77,1.68-4.61,2.8S30.41,29,30,29s-.64-.19-1.4-1.2S26.49,25,24,25s-3.76,1.69-4.6,2.8S18.41,29,18,29s-.65-.19-1.4-1.2S14.5,25,12,25s-3.77,1.69-4.6,2.8S6.42,29,6,29v4c2.5,0,3.76-1.69,4.6-2.8s1-1.2,1.4-1.2.64.19,1.4,1.2S15.5,33,18,33s3.76-1.69,4.59-2.8,1-1.2,1.4-1.2.64.19,1.4,1.2S27.49,33,30,33s3.77-1.68,4.6-2.8S35.57,29,36,29s.64.19,1.4,1.2S39.5,33,42,33V29c-.42,0-.64-.19-1.4-1.2S38.5,25,36,25Z"/></svg>