<svg xmlns="http://www.w3.org/2000/svg" viewBox="0 0 48 48"><rect width="48" height="48" style="fill:none"/><path d="M36,10a2,2,0,0,1,2,2,2,2,0,0,1-.29,1l-.9,1.51.5,1.68a17,17,0,0,1-21.1,21.1l-1.68-.5-1.51.9A2,2,0,0,1,12,38a2,2,0,0,1-2-2,2,2,0,0,1,.29-1l.9-1.51-.5-1.68a17,17,0,0,1,21.1-21.1l1.68.5,1.51-.9A2,2,0,0,1,36,10m0-4a6,6,0,0,0-3.08.86A20.67,20.67,0,0,0,27,6,21,21,0,0,0,6,27a20.67,20.67,0,0,0,.86,5.92,6,6,0,0,0,8.22,8.22A20.67,20.67,0,0,0,21,42,21,21,0,0,0,42,21a20.67,20.67,0,0,0-.86-5.92A6,6,0,0,0,36,6ZM27,17V13A14,14,0,0,0,13,27h4A10,10,0,0,1,27,17Z"/></svg>