<svg xmlns="http://www.w3.org/2000/svg" viewBox="0 0 48 48"><path d="M42,12V8H24V6H20V8H18V6H14V8H12V6H8V8H6v4H8v2H6v4H8V32h4V18h2V32h4V18h2V32h4V18H42V14H24V12ZM12,14V12h2v2Zm8,0H18V12h2ZM42,38H39.78a2.29,2.29,0,0,0-1.62.67L36.7,40.13A6.37,6.37,0,0,1,32.19,42H15.81a6.37,6.37,0,0,1-4.51-1.87L9.84,38.67A2.29,2.29,0,0,0,8.22,38H6V34H8.19a6.37,6.37,0,0,1,4.51,1.87l1.46,1.46a2.29,2.29,0,0,0,1.62.67H32.22a2.29,2.29,0,0,0,1.62-.67l1.46-1.46A6.37,6.37,0,0,1,39.81,34H42Z"/><rect width="48" height="48" style="fill:none"/></svg>