<svg xmlns="http://www.w3.org/2000/svg" viewBox="0 0 48 48"><rect width="48" height="48" style="fill:none"/><path d="M22,30a3,3,0,1,1-3-3A3,3,0,0,1,22,30Zm7-3a3,3,0,1,0,3,3A3,3,0,0,0,29,27Zm13-1h0a14,14,0,0,1-7.87,12.57A9.94,9.94,0,0,1,29,40H19a9.94,9.94,0,0,1-5.13-1.43A14,14,0,0,1,6,26H6a14.14,14.14,0,0,1,.54-3.81A18,18,0,0,1,8.94,8a18.08,18.08,0,0,1,9.44,4.1A14.38,14.38,0,0,1,20,12h8a14.38,14.38,0,0,1,1.62.1A18.08,18.08,0,0,1,39.06,8a18,18,0,0,1,2.4,14.19A14.14,14.14,0,0,1,42,26ZM10.73,22.27A9.88,9.88,0,0,0,10,25.62,10,10,0,0,1,19,20H29a10,10,0,0,1,9,5.62,9.88,9.88,0,0,0-.71-3.35A13.85,13.85,0,0,0,37,12.53a14,14,0,0,0-6.08,3.9A9.73,9.73,0,0,0,28,16H20a9.73,9.73,0,0,0-2.87.43,14,14,0,0,0-6.08-3.9A13.85,13.85,0,0,0,10.73,22.27ZM28,36a10,10,0,0,0,4.23-1A6,6,0,0,0,29,24H19a6,6,0,0,0-3.23,11A10,10,0,0,0,20,36Z"/></svg>