<svg xmlns="http://www.w3.org/2000/svg" viewBox="0 0 48 48"><rect width="48" height="48" style="fill:none"/><path d="M38.21,9.79A13.56,13.56,0,0,0,28.44,6h0C23.24,6,17.51,8.39,13,13,5.1,20.8,3.69,32.1,9.79,38.21A13.56,13.56,0,0,0,19.56,42c5.2,0,10.93-2.39,15.49-7C42.9,27.2,44.31,15.9,38.21,9.79Zm-6,22.43C28.6,35.84,23.87,38,19.56,38a9.65,9.65,0,0,1-6.94-2.62c-4.53-4.53-3.12-13.33,3.16-19.6C19.4,12.16,24.13,10,28.44,10h0a9.65,9.65,0,0,1,6.94,2.62C39.91,17.15,38.5,26,32.22,32.22ZM30,30a16.7,16.7,0,0,1-7.63,4.5l-.85-3.92a12.56,12.56,0,0,0,5.65-3.41,12.5,12.5,0,0,0,3.41-5.65l3.91.85A16.67,16.67,0,0,1,30,30Z"/></svg>