<svg xmlns="http://www.w3.org/2000/svg" viewBox="0 0 48 48"><rect width="48" height="48" style="fill:none"/><path d="M24,16.69a9.91,9.91,0,0,1,7.1,3,10.23,10.23,0,0,1-.32,14.4l-5.37,5.36a2,2,0,0,1-2.82,0l-5.37-5.36a10.23,10.23,0,0,1-.32-14.4,9.91,9.91,0,0,1,7.1-3m0-4a14,14,0,0,0-9.95,4.14,14.29,14.29,0,0,0,.34,20.05l5.37,5.36a6,6,0,0,0,8.48,0l5.37-5.36A14.29,14.29,0,0,0,34,16.83a14,14,0,0,0-10-4.14ZM35.3,9.26C36.12,8.25,36.41,8,37,8V4a5.94,5.94,0,0,0-4.8,2.74C31.38,7.75,31.09,8,30.5,8s-.88-.25-1.7-1.26A6,6,0,0,0,24,4a6,6,0,0,0-4.8,2.74c-.82,1-1.1,1.26-1.7,1.26s-.87-.25-1.69-1.26A6,6,0,0,0,11,4V8c.59,0,.88.25,1.69,1.26A6,6,0,0,0,17.49,12,6,6,0,0,0,22.3,9.26C23.11,8.25,23.4,8,24,8s.88.25,1.7,1.26A6,6,0,0,0,30.5,12,6,6,0,0,0,35.3,9.26ZM22,19a2,2,0,1,0,2,2A2,2,0,0,0,22,19Zm-4,4a2,2,0,1,0,2,2A2,2,0,0,0,18,23Z"/></svg>