<svg xmlns="http://www.w3.org/2000/svg" viewBox="0 0 48 48"><rect width="48" height="48" style="fill:none"/><path d="M17.11,18c.66-.71,3.09-2,6.89-2s6.23,1.29,6.89,2c-.66.71-3.09,2-6.89,2s-6.23-1.29-6.89-2M13,18c0,3.31,4.92,6,11,6s11-2.69,11-6-4.92-6-11-6-11,2.69-11,6ZM6,18V30c0,6.63,8.06,12,18,12s18-5.37,18-12V18c0-6.63-8.06-12-18-12S6,11.37,6,18ZM24,38c-8.25,0-14-4.22-14-8V25.53C13.3,28.26,18.34,30,24,30s10.7-1.74,14-4.47V30C38,33.78,32.25,38,24,38ZM38,18c0,3.78-5.75,8-14,8s-14-4.22-14-8,5.75-8,14-8S38,14.22,38,18Z"/></svg>