<svg xmlns="http://www.w3.org/2000/svg" viewBox="0 0 48 48"><rect width="48" height="48" style="fill:none"/><path d="M24,10c8,0,12.81,2.31,13.87,3.5C36.81,14.69,32,17,24,17s-12.81-2.31-13.87-3.5C11.19,12.31,16,10,24,10m0-4C14.06,6,6,9.36,6,13.5S14.06,21,24,21s18-3.36,18-7.5S33.94,6,24,6Zm0,18c-6.93,0-12.93-1.63-15.94-4A3.19,3.19,0,0,0,8,20.5C8,24.64,15.16,28,24,28s16-3.36,16-7.5a3.19,3.19,0,0,0-.06-.53C36.93,22.37,30.93,24,24,24Zm0,7c-6,0-11.23-1.55-14-3.85,0,.12,0,.23,0,.35,0,4.14,6.27,7.5,14,7.5s14-3.36,14-7.5c0-.12,0-.23,0-.35C35.23,29.45,30,31,24,31Zm0,7c-5.09,0-9.54-1.46-12-3.64,0,0,0,.09,0,.14,0,4.14,5.37,7.5,12,7.5s12-3.36,12-7.5c0,0,0-.09,0-.14C33.54,36.54,29.09,38,24,38Z"/></svg>