<svg xmlns="http://www.w3.org/2000/svg" viewBox="0 0 48 48"><path d="M42,8.83,39.17,6l-5.66,5.66L27.86,6,25,8.83l5.66,5.66L25,20.14,27.86,23l5.65-5.66L39.17,23,42,20.14l-5.66-5.65ZM30.82,28.35l-3.13,6.26a32.21,32.21,0,0,1-14.3-14.3l6.26-3.13A24.85,24.85,0,0,1,17,6H6A36,36,0,0,0,42,42V31A24.85,24.85,0,0,1,30.82,28.35ZM13.29,10a28.78,28.78,0,0,0,1.24,5.26l-2.71,1.36A31.77,31.77,0,0,1,10.26,10ZM38,37.74a31.77,31.77,0,0,1-6.62-1.56l1.36-2.71A28.78,28.78,0,0,0,38,34.71Z"/><rect width="48" height="48" style="fill:none"/></svg>