<svg xmlns="http://www.w3.org/2000/svg" viewBox="0 0 48 48"><rect width="48" height="48" style="fill:none"/><path d="M30,22.52V20.7a9,9,0,1,0-12,0v1.82c-5.86,1-10,3.54-10,6.48v7c0,3.87,7.16,7,16,7s16-3.13,16-7V29C40,26.06,35.86,23.56,30,22.52Zm-8-3.94a5,5,0,1,1,4,0v7.31a18.24,18.24,0,0,1-4,0Zm-4,8V28.5c0,.83,2.69,1.5,6,1.5s6-.67,6-1.5V26.59c3.16.65,5.16,1.71,5.84,2.41-1,1.07-5.1,3-11.84,3s-10.8-1.93-11.84-3C12.84,28.3,14.84,27.24,18,26.59ZM24,39c-7.18,0-11.31-2.19-12-3.2V33.62A27.9,27.9,0,0,0,24,36a27.9,27.9,0,0,0,12-2.38V35.8C35.31,36.81,31.18,39,24,39Z"/></svg>