<svg xmlns="http://www.w3.org/2000/svg" viewBox="0 0 48 48"><rect width="48" height="48" style="fill:none"/><path d="M11.27,18.34h0L16.93,24l-5.66,5.66a8,8,0,0,1,0-11.32M8.44,15.51h0a12,12,0,0,0,0,17h0a4,4,0,0,0,5.66,0L22.59,24,14.1,15.51a4,4,0,0,0-5.66,0Zm9.9-4.24a8,8,0,0,1,11.32,0L24,16.93l-5.66-5.65h0M15.51,8.44h0a4,4,0,0,0,0,5.66L24,22.59l8.49-8.49a4,4,0,0,0,0-5.66h0a12,12,0,0,0-17,0ZM24,31.07l5.66,5.66a8,8,0,0,1-11.32,0L24,31.07m0-5.66L15.51,33.9a4,4,0,0,0,0,5.66h0a12,12,0,0,0,17,0h0a4,4,0,0,0,0-5.66L24,25.41Zm12.73-7.07h0a8,8,0,0,1,0,11.32L31.07,24l5.66-5.66M33.9,15.51,25.41,24l8.49,8.49a4,4,0,0,0,5.66,0h0a12,12,0,0,0,0-17h0a4,4,0,0,0-5.66,0Z"/></svg>