<svg xmlns="http://www.w3.org/2000/svg" viewBox="0 0 48 48"><rect width="48" height="48" style="fill:none"/><path d="M36,14.83A2,2,0,1,0,33.17,12l-5,5H19.83l-5-5A2,2,0,1,0,12,14.83l5,5v8.34l-5,5A2,2,0,1,0,14.83,36l5-5h8.41a1.64,1.64,0,0,0,.26.33L33.17,36A2,2,0,0,0,36,33.17L31.33,28.5a1.64,1.64,0,0,0-.33-.26V19.83ZM27,27H21V21h6Zm-6.33,5.29a7.5,7.5,0,1,1-5-4.95L11,32A3.5,3.5,0,0,0,16,37ZM8.2,18.8a7.5,7.5,0,1,1,12.47-3.09L16,11A3.5,3.5,0,0,0,11,16l4.69,4.69A7.46,7.46,0,0,1,8.2,18.8Zm19.13-3.09a7.5,7.5,0,1,1,5,4.95L37,16A3.5,3.5,0,1,0,32,11ZM39.8,29.2a7.5,7.5,0,1,1-12.47,3.09L32,37A3.5,3.5,0,1,0,37,32l-4.69-4.69A7.46,7.46,0,0,1,39.8,29.2Z"/></svg>