<svg xmlns="http://www.w3.org/2000/svg" viewBox="0 0 48 48"><rect width="48" height="48" style="fill:none"/><path d="M42.62,18.18A13,13,0,0,0,31,11c-.34,0-.67,0-1,.06a6,6,0,0,0-6-6.32,5.91,5.91,0,0,0-2.69.64A6,6,0,0,0,18,11.05c-.33,0-.67-.05-1-.05a13,13,0,0,0,0,26c.34,0,.68,0,1,0a6,6,0,0,0,6,6.32,5.91,5.91,0,0,0,2.69-.64A6,6,0,0,0,30,37c.34,0,.68,0,1,0A13,13,0,0,0,42.62,18.18Zm-20.16,3A8.84,8.84,0,0,1,24,18.35a9,9,0,0,1,0,11.29A9.14,9.14,0,0,1,23,28,8.92,8.92,0,0,1,22.46,21.16ZM23.1,8.94a2,2,0,0,1,.9-.21,2,2,0,0,1,1.79,1.11,2,2,0,0,1-.89,2.68,2,2,0,0,1-.9.21,2,2,0,0,1-.9-3.79ZM8,24a9,9,0,0,1,12.86-8.12,13,13,0,0,0-1.49,13.94,13.29,13.29,0,0,0,1.48,2.3A8.88,8.88,0,0,1,17,33,9,9,0,0,1,8,24ZM25.9,37.9A2,2,0,0,1,24,39.27a2,2,0,0,1-.9-3.79,2,2,0,0,1,.9-.21,2,2,0,0,1,1.9,2.63ZM39.54,26.84A9,9,0,0,1,31,33a9.07,9.07,0,0,1-3.87-.88,13,13,0,0,0,0-16.24,9,9,0,0,1,12.4,11Z"/></svg>