<svg xmlns="http://www.w3.org/2000/svg" viewBox="0 0 48 48"><rect width="48" height="48" style="fill:none"/><path d="M17,16a6,6,0,1,0,6,6A6,6,0,0,0,17,16Zm0,8a2,2,0,1,1,2-2A2,2,0,0,1,17,24Zm14-8a6,6,0,1,0,6,6A6,6,0,0,0,31,16Zm0,8a2,2,0,1,1,2-2A2,2,0,0,1,31,24Zm11.89.63-.62-4.72a13.88,13.88,0,0,0-1.85-5.28A5,5,0,1,0,33,8,21.06,21.06,0,0,0,15,8a5,5,0,1,0-7.42,6.61,13.88,13.88,0,0,0-1.85,5.28l-.62,4.72C3.9,33.9,12.43,42,23.38,42h1.24C35.57,42,44.1,33.9,42.89,24.63Zm-6.55,8.44A15.64,15.64,0,0,1,24.62,38H23.38a15.64,15.64,0,0,1-11.72-4.93,10,10,0,0,1-2.58-7.92l.62-4.72C10.47,14.48,16.62,10,24,10s13.53,4.48,14.3,10.43l.62,4.72A10,10,0,0,1,36.34,33.07Z"/></svg>