<svg xmlns="http://www.w3.org/2000/svg" viewBox="0 0 48 48"><rect width="48" height="48" style="fill:none"/><path d="M34.83,14.17a11,11,0,0,0-21.66,0A11,11,0,0,0,4,25v2H6a7,7,0,0,1,7,7v2h2a7,7,0,0,1,7,7h4a7,7,0,0,1,7-7h2V34a7,7,0,0,1,7-7h2V25A11,11,0,0,0,34.83,14.17ZM24,9a7,7,0,0,1,6.77,5.25A11,11,0,0,0,24,18.69a11,11,0,0,0-6.77-4.44A7,7,0,0,1,24,9ZM8.24,23.23a7,7,0,0,1,13.52,0A11,11,0,0,0,15,27.69,11,11,0,0,0,8.24,23.23ZM24,36.69a11,11,0,0,0-6.77-4.44,7,7,0,0,1,13.54,0A11,11,0,0,0,24,36.69Zm9-9a11,11,0,0,0-6.76-4.46,7,7,0,0,1,13.52,0A11,11,0,0,0,33,27.69Z"/></svg>