<svg xmlns="http://www.w3.org/2000/svg" viewBox="0 0 48 48"><path d="M22.31,13.82l-3.39-3.39A18.49,18.49,0,0,1,42,24a18.46,18.46,0,0,1-3,6.54l-2.86-2.87A14.47,14.47,0,0,0,37.86,24,14.4,14.4,0,0,0,24,13.72,15.81,15.81,0,0,0,22.31,13.82ZM42,39.17,39.17,42l-6.11-6.12A18.29,18.29,0,0,1,24,38.28,18.49,18.49,0,0,1,6,24a18.49,18.49,0,0,1,5.64-9.53L6,8.83,8.83,6ZM30.11,32.94l-3.53-3.53a6,6,0,0,1-8-8L14.47,17.3A14.31,14.31,0,0,0,10.14,24,14.4,14.4,0,0,0,24,34.28,14.56,14.56,0,0,0,30.11,32.94Z"/><rect width="48" height="48" style="fill:none"/></svg>