<svg xmlns="http://www.w3.org/2000/svg" viewBox="0 0 48 48"><path d="M24,6A18,18,0,1,0,42,24,18,18,0,0,0,24,6ZM35.51,32A13.92,13.92,0,0,1,33.16,26h4.68A13.89,13.89,0,0,1,35.51,32ZM10.16,26h4.68A13.92,13.92,0,0,1,12.49,32,13.89,13.89,0,0,1,10.16,26Zm2.33-9.95A13.92,13.92,0,0,1,14.84,22H10.16A13.89,13.89,0,0,1,12.49,16.05ZM26,22V10.16a13.88,13.88,0,0,1,6.72,2.91A17.91,17.91,0,0,0,29.11,22Zm-4,0H18.89a17.91,17.91,0,0,0-3.61-8.93A13.88,13.88,0,0,1,22,10.16Zm-3.11,4H22V37.84a13.88,13.88,0,0,1-6.72-2.91A17.91,17.91,0,0,0,18.89,26ZM26,26h3.11a17.91,17.91,0,0,0,3.61,8.93A13.88,13.88,0,0,1,26,37.84Zm7.16-4a13.92,13.92,0,0,1,2.35-5.95A13.89,13.89,0,0,1,37.84,22Z"/><rect width="48" height="48" style="fill:none"/></svg>