<svg xmlns="http://www.w3.org/2000/svg" viewBox="0 0 48 48"><path d="M24,6A18,18,0,1,0,42,24,18,18,0,0,0,24,6ZM37.61,20.76,36,21.69l-4-2.31V14.76l1.6-.92A14,14,0,0,1,37.61,20.76ZM24,28.62l-4-2.31V21.69l4-2.31,4,2.31v4.62Zm4,2.31Zm0-20.34v1.86l-4,2.31-4-2.31V10.59a13.85,13.85,0,0,1,8,0ZM14.4,13.84l1.6.92v4.62l-4,2.31-1.61-.93A14,14,0,0,1,14.4,13.84Zm-4,13.4L12,26.31l4,2.31v4.62l-1.6.92A14,14,0,0,1,10.39,27.24ZM20,37.41V35.55l4-2.31,4,2.31v1.86a13.85,13.85,0,0,1-8,0Zm13.6-3.25L32,33.24V28.62l4-2.31,1.61.93A14,14,0,0,1,33.6,34.16Z"/><rect width="48" height="48" style="fill:none"/></svg>