<svg xmlns="http://www.w3.org/2000/svg" viewBox="0 0 48 48"><path d="M35.05,13C30.49,8.39,24.76,6,19.56,6A13.56,13.56,0,0,0,9.79,9.79C3.69,15.9,5.1,27.2,13,35.05c4.56,4.56,10.29,7,15.49,7a13.56,13.56,0,0,0,9.77-3.79C44.31,32.1,42.9,20.8,35.05,13ZM19.56,10.47c4.19,0,8.8,2.1,12.33,5.64a18.64,18.64,0,0,1,5.54,10.68,11.92,11.92,0,0,1-.1,3.79,47,47,0,0,0-8.59-11.32,47,47,0,0,0-11.32-8.59A11.22,11.22,0,0,1,19.56,10.47ZM34,34c-2.65-1.07-7-3.82-11.59-8.43S15,16.53,14,14c2.65,1.07,7,3.82,11.59,8.43S33,31.47,34,34Zm-17.9-2.12c-4.31-4.3-6.25-10-5.42-14.43a47.22,47.22,0,0,0,8.57,11.28,47,47,0,0,0,11.32,8.59,11.22,11.22,0,0,1-2.14.2C24.25,37.53,19.64,35.43,16.11,31.89Z"/><rect width="48" height="48" style="fill:none"/></svg>