<svg xmlns="http://www.w3.org/2000/svg" viewBox="0 0 48 48"><rect width="48" height="48" style="fill:none"/><path d="M35.11,12.89A23.41,23.41,0,0,0,18.48,6h0A23.69,23.69,0,0,0,8.3,8.3,23.55,23.55,0,0,0,39.7,39.7,23.55,23.55,0,0,0,35.11,12.89ZM11.34,11.34A19.76,19.76,0,0,1,18.48,10h0l.66,0L10,19.14A19.34,19.34,0,0,1,11.34,11.34Zm4.38,20.94A19.4,19.4,0,0,1,10.81,24L24,10.8A19.53,19.53,0,0,1,37.19,24L24,37.2A19.32,19.32,0,0,1,15.72,32.28Zm20.94,4.38A19.76,19.76,0,0,1,29.52,38l-.66,0L38,28.86A19.34,19.34,0,0,1,36.66,36.66ZM21.33,18.5l8.17,8.17L26.67,29.5,18.5,21.33Z"/></svg>