<svg xmlns="http://www.w3.org/2000/svg" viewBox="0 0 48 48"><path d="M24,6A18,18,0,1,0,42,24,18,18,0,0,0,24,6ZM36.54,17.82,32,19.31,26,15v-4.8A14,14,0,0,1,36.54,17.82ZM20.73,28.53l-2-6.23L24,18.46l5.3,3.84-2,6.23ZM22,10.16V15l-6,4.35-4.56-1.49A14,14,0,0,1,22,10.16ZM10,24a13.42,13.42,0,0,1,.22-2.38l4.53,1.48,2.3,7.06L14.25,34A13.91,13.91,0,0,1,10,24Zm7.48,12.38,2.79-3.85h7.46l2.79,3.85a13.93,13.93,0,0,1-13,0ZM33.75,34,31,30.16l2.3-7.06,4.53-1.48A13.42,13.42,0,0,1,38,24,13.91,13.91,0,0,1,33.75,34Z"/><rect width="48" height="48" style="fill:none"/></svg>