<svg xmlns="http://www.w3.org/2000/svg" viewBox="0 0 48 48"><path d="M24,6A18,18,0,1,0,42,24,18,18,0,0,0,24,6Zm4.23,4.66a5,5,0,0,1-8.46,0,13.89,13.89,0,0,1,8.46,0ZM13,24a5,5,0,0,1-2.34,4.23,13.89,13.89,0,0,1,0-8.46A5,5,0,0,1,13,24Zm6.77,13.34a5,5,0,0,1,8.46,0,13.89,13.89,0,0,1-8.46,0Zm12.07-1.75a9,9,0,0,0-15.68,0,13.94,13.94,0,0,1-3.75-3.75,9,9,0,0,0,0-15.68,13.94,13.94,0,0,1,3.75-3.75,9,9,0,0,0,15.68,0,13.94,13.94,0,0,1,3.75,3.75,9,9,0,0,0,0,15.68A13.94,13.94,0,0,1,31.84,35.59ZM38,24a13.81,13.81,0,0,1-.66,4.23,5,5,0,0,1,0-8.46A13.81,13.81,0,0,1,38,24Z"/><rect width="48" height="48" style="fill:none"/></svg>