<svg xmlns="http://www.w3.org/2000/svg" viewBox="0 0 48 48"><path d="M42,39.17,33.63,30.8c4-5.58,3-14-2.7-19.67A17,17,0,0,0,19,6,13,13,0,0,0,9.72,9.72c-5.47,5.47-4.83,15,1.41,21.21A17,17,0,0,0,23,36.07a13.25,13.25,0,0,0,7.77-2.44L39.17,42Zm-10.61-20a11.7,11.7,0,0,1,.66,4.4L29.52,21Zm-4.81-6.5A13.38,13.38,0,0,1,28.1,14a14.09,14.09,0,0,1,1.31,1.52l-2.72,2.73-2.83-2.83ZM19,10a11.77,11.77,0,0,1,3.87.68L21,12.55,18.51,10Zm-6.48,2.55a8.29,8.29,0,0,1,1.59-1.24l4.07,4.07-2.83,2.83-4.07-4.08A7.78,7.78,0,0,1,12.55,12.55ZM10.68,22.91A11.75,11.75,0,0,1,10,18.5L12.55,21Zm4.81,6.5A14.51,14.51,0,0,1,14,28.1a14.41,14.41,0,0,1-1.31-1.52l2.73-2.72,2.83,2.83ZM21,18.21,23.86,21,21,23.86,18.21,21Zm2,13.86a11.87,11.87,0,0,1-3.88-.68L21,29.52,23.56,32Zm4.88-1.32-4.06-4.06,2.83-2.83,4.07,4.07a8.52,8.52,0,0,1-1.24,1.59A8.31,8.31,0,0,1,27.92,30.75Z"/><rect width="48" height="48" style="fill:none"/></svg>