<svg xmlns="http://www.w3.org/2000/svg" viewBox="0 0 48 48"><rect width="48" height="48" style="fill:none"/><path d="M39.59,15A18,18,0,1,0,33,39.59,18,18,0,0,0,39.59,15ZM37,29.19,26,22.85V18.23l12,6.9a14.26,14.26,0,0,1-.43,2.49A12.07,12.07,0,0,1,37,29.19ZM18,11.36a14.14,14.14,0,0,1,4-1.22V22.85l-4,2.3ZM36.12,17a13.74,13.74,0,0,1,1.35,3.23L26,13.61V10.15A14,14,0,0,1,36.12,17ZM10.48,20.38A13.85,13.85,0,0,1,14,14.21V27.46l-3,1.73A13.84,13.84,0,0,1,10.48,20.38ZM13,32.66l11-6.35,4,2.31L16.06,35.51A14,14,0,0,1,13,32.66Zm18,3.46A14,14,0,0,1,24,38a13.6,13.6,0,0,1-3.5-.45L32,30.93l3,1.73A13.9,13.9,0,0,1,31,36.12Z"/></svg>