<svg xmlns="http://www.w3.org/2000/svg" viewBox="0 0 48 48"><rect width="48" height="48" style="fill:none"/><path d="M39.26,25.8a6.05,6.05,0,0,0-3-.8,6,6,0,0,0-3.89,1.45L28.13,24l14.32-8.27-2-3.46-1.73,1-2-3.47-3.46,2,2,3.47-1.73,1-2-3.47-3.47,2,2,3.47-3.93,2.27V4h-4V6h-4v4h4v2h-4v4h4v4.54L7.81,12.27l-2,3.46,1.74,1-2,3.47L9,22.2l2-3.47,1.73,1-2,3.47,3.47,2,2-3.47L20.13,24,15.9,26.45a6,6,0,1,0,2,3.46l4.23-2.45v4.89a6,6,0,1,0,4,0V27.46l4.23,2.45a6,6,0,1,0,8.9-4.11ZM13.94,31.52A2,2,0,0,1,13,32.73,1.94,1.94,0,0,1,12,33a2,2,0,0,1-1.74-1A2,2,0,0,1,11,29.27,1.94,1.94,0,0,1,12,29a2,2,0,0,1,1.74,1A2,2,0,0,1,13.94,31.52ZM24.13,40a2,2,0,1,1,2-2A2,2,0,0,1,24.13,40ZM38,32a2,2,0,0,1-1.74,1,2,2,0,0,1-1.92-1.48,2,2,0,0,1,.2-1.52,2,2,0,0,1,2.73-.73A2,2,0,0,1,38,32Z"/></svg>