<svg xmlns="http://www.w3.org/2000/svg" viewBox="0 0 48 48"><rect width="48" height="48" style="fill:none"/><path d="M36,10H34.12a6,6,0,0,0-5.94,5.15L27.2,22H21.33l.89-6.28a2,2,0,0,1,2-1.72h1.88a1.33,1.33,0,0,1,.21,0,6.46,6.46,0,0,1,2.06-3.58A6.08,6.08,0,0,0,26.08,10H24.2a6,6,0,0,0-5.94,5.15l-1,6.85H11.41l.9-6.28a2,2,0,0,1,2-1.72h1.88a1.38,1.38,0,0,1,.2,0,6.52,6.52,0,0,1,2.06-3.58A6.07,6.07,0,0,0,16.17,10H14.29a6,6,0,0,0-5.94,5.15l-2.29,16A6,6,0,0,0,12,38h1.88a6.06,6.06,0,0,0,2.25-.45A6.57,6.57,0,0,1,14.07,34l-.19,0H12a2,2,0,0,1-1.51-.69A2,2,0,0,1,10,31.72L10.84,26h5.87L16,31.15A6,6,0,0,0,21.92,38H23.8a6.06,6.06,0,0,0,2.25-.45A6.45,6.45,0,0,1,24,34l-.19,0H21.92a2,2,0,0,1-2-2.28L20.75,26h5.88l-.73,5.15A6,6,0,0,0,31.84,38h1.87a6,6,0,0,0,5.94-5.15l2.29-16A6,6,0,0,0,36,10Zm2,6.28-2.29,16a2,2,0,0,1-2,1.72H31.84a2,2,0,0,1-1.52-.69,2,2,0,0,1-.46-1.59l2.28-16a2,2,0,0,1,2-1.72H36a2,2,0,0,1,1.51.69A2,2,0,0,1,38,16.28Z"/></svg>