<svg xmlns="http://www.w3.org/2000/svg" viewBox="0 0 48 48"><rect width="48" height="48" style="fill:none"/><path d="M37.46,11.38h0c-.4-.39-.81-.76-1.25-1.12l-12,12L18.89,17l-2.83,2.83,8.12,8.12L36.11,16A10.68,10.68,0,0,1,38,22a11.11,11.11,0,0,1-3.93,8.32A15.09,15.09,0,0,1,24,34a15.07,15.07,0,0,1-10.63-4.2A11.08,11.08,0,0,1,10,22a11.11,11.11,0,0,1,3.93-8.32A15.09,15.09,0,0,1,24,10a16,16,0,0,1,5.74,1.06l3-3A19.65,19.65,0,0,0,24,6C14.06,6,6,13.16,6,22a14.71,14.71,0,0,0,3.12,9L6,38l6.88-3.44A19.32,19.32,0,0,0,24,38c9.94,0,18-7.16,18-16A15,15,0,0,0,37.46,11.38Z"/></svg>