<svg xmlns="http://www.w3.org/2000/svg" viewBox="0 0 48 48"><rect width="48" height="48" style="fill:none"/><path d="M24,10.62l2.18,1.26.93.53h3.58L32,14.59l.53.93.93.53,2.18,1.26v3.58l.53.93L37.38,24l-1.26,2.18-.53.93v3.58L33.41,32l-.93.53-.53.93-1.26,2.18H27.11l-.93.53L24,37.38l-2.18-1.26-.93-.53H17.31l-1.26-2.18-.53-.93L14.59,32l-2.18-1.26V27.11l-.53-.93L10.62,24l1.26-2.18.53-.93V17.31l2.18-1.26.93-.53.53-.93,1.26-2.18h3.58l.93-.53L24,10.62M24,6,19.82,8.41H15l-2.41,4.18L8.41,15v4.82L6,24l2.41,4.18V33l4.18,2.41L15,39.59h4.82L24,42l4.18-2.41H33l2.41-4.18L39.59,33V28.18L42,24l-2.41-4.18V15l-4.18-2.41L33,8.41H28.18L24,6Z"/></svg>