<svg xmlns="http://www.w3.org/2000/svg" viewBox="0 0 48 48"><rect width="48" height="48" style="fill:none"/><path d="M26.51,41.8A17.34,17.34,0,0,1,24,42a14.91,14.91,0,0,1-1.5-.08A19.5,19.5,0,0,1,41.92,22.5,14.91,14.91,0,0,1,42,24a17.34,17.34,0,0,1-.2,2.51A15.51,15.51,0,0,0,26.51,41.8ZM36.43,11a18.16,18.16,0,0,0-4.37-3.08A35.56,35.56,0,0,0,7.92,32.06,18.16,18.16,0,0,0,11,36.43,31.59,31.59,0,0,1,36.43,11ZM25.6,6.08C25.07,6,24.54,6,24,6A18,18,0,0,0,6,24c0,.54,0,1.07.08,1.6A39.7,39.7,0,0,1,25.6,6.08ZM41.14,18.52a17.85,17.85,0,0,0-1.79-3.89A27.51,27.51,0,0,0,14.63,39.35a17.85,17.85,0,0,0,3.89,1.79A23.53,23.53,0,0,1,41.14,18.52ZM38.39,34.77a17.63,17.63,0,0,0,2.35-4.2A11.51,11.51,0,0,0,30.57,40.74a17.63,17.63,0,0,0,4.2-2.35L42,42Z"/></svg>