<svg xmlns="http://www.w3.org/2000/svg" viewBox="0 0 48 48"><rect width="48" height="48" style="fill:none"/><path d="M42,24A18,18,0,0,0,25,6.05c-.33,0-.67,0-1,0A18,18,0,0,0,6.05,23c0,.33,0,.67,0,1A18,18,0,0,0,23,42c.33,0,.67,0,1,0A18,18,0,0,0,42,25C42,24.69,42,24.35,42,24Zm-4,0c0,.21,0,.41,0,.61a6,6,0,0,1-11.71,1.12A10,10,0,0,0,33.8,14,14,14,0,0,1,38,24ZM24,10c.21,0,.41,0,.61,0a6,6,0,0,1,1.12,11.71A10,10,0,0,0,14,14.2,14,14,0,0,1,24,10ZM10,24c0-.21,0-.41,0-.61a6,6,0,0,1,11.71-1.12A10,10,0,0,0,14.2,34,14,14,0,0,1,10,24ZM24,38c-.21,0-.41,0-.61,0a6,6,0,0,1-1.12-11.71A10,10,0,0,0,34,33.8,14,14,0,0,1,24,38Z"/></svg>