<svg xmlns="http://www.w3.org/2000/svg" viewBox="0 0 48 48"><rect width="48" height="48" style="fill:none"/><path d="M24,24a6,6,0,0,0-.68,12A8,8,0,0,1,18,38v4A12,12,0,0,0,30,30,6,6,0,0,0,24,24Zm-2,6a2,2,0,1,1,2,2A2,2,0,0,1,22,30Zm.27-9a6,6,0,0,0-10-6.57,8,8,0,0,1,.89-5.63l-3.46-2a12,12,0,0,0,4.39,16.4A6,6,0,0,0,22.27,21Zm-4.2-4.73a2,2,0,1,1-2.73.73A2,2,0,0,1,18.07,16.27ZM25.73,21a6,6,0,0,0,10.7-5.39,8,8,0,0,1,4.43,3.59l3.46-2a12,12,0,0,0-16.39-4.4A6,6,0,0,0,25.73,21Zm6.2-1.27A2,2,0,1,1,32.66,17,2,2,0,0,1,31.93,19.73Z"/></svg>