<svg xmlns="http://www.w3.org/2000/svg" viewBox="0 0 48 48"><rect width="48" height="48" style="fill:none"/><path d="M44,26H38V22h6ZM10,22H4v4h6ZM22,4v6h4V4Zm0,34v6h4V38Zm17.56-1.27-4.25-4.24-2.82,2.82,4.24,4.25Zm-24.05-24L11.27,8.44,8.44,11.27l4.25,4.24ZM36.73,8.44l-4.24,4.25,2.82,2.82,4.25-4.24Zm-24,24.05L8.44,36.73l2.83,2.83,4.24-4.25Zm15.2-13.8a2,2,0,0,0-1.33.49L24,21.3l-2.56-2.12a2,2,0,0,0-1.33-.49,2.13,2.13,0,0,0-1.49.61,2.11,2.11,0,0,0,0,3L24,27.66l5.4-5.37a2.11,2.11,0,0,0-1.5-3.6m0-4a6.11,6.11,0,0,1,4.32,10.43L24,33.31l-8.19-8.19h0a6.1,6.1,0,0,1,8.21-9,6.06,6.06,0,0,1,3.89-1.41Z"/></svg>