<svg xmlns="http://www.w3.org/2000/svg" viewBox="0 0 48 48"><rect width="48" height="48" style="fill:none"/><path d="M23,14a2,2,0,1,1-2-2A2,2,0,0,1,23,14Zm1,8a2,2,0,1,0,2,2A2,2,0,0,0,24,22Zm0,5a2,2,0,1,0,2,2A2,2,0,0,0,24,27Zm0,5a2,2,0,1,0,2,2A2,2,0,0,0,24,32Zm3-20a2,2,0,1,0,2,2A2,2,0,0,0,27,12ZM37,24.81A13.8,13.8,0,0,1,38,30a14,14,0,0,1-28,0,13.8,13.8,0,0,1,1-5.19L4.74,21.19l2-3.47L13,21.35a15.24,15.24,0,0,1,1.74-1.85,10.5,10.5,0,1,1,18.48,0A15.24,15.24,0,0,1,35,21.35l6.28-3.63,2,3.47ZM34,30a10,10,0,0,0-7.27-9.61,6.5,6.5,0,1,0-5.46,0A10,10,0,1,0,34,30Z"/></svg>