<svg xmlns="http://www.w3.org/2000/svg" viewBox="0 0 48 48"><path d="M41,30a5.16,5.16,0,0,1,1,3c0,5-8.06,9-18,9S6,38,6,33a5.16,5.16,0,0,1,1-3,10,10,0,0,0,3,2.69A.94.94,0,0,0,10,33c0,1.45,4.91,5,14,5s14-3.55,14-5a.94.94,0,0,0-.06-.31A10,10,0,0,0,41,30ZM24,10c-9.09,0-14,3.55-14,5s4.91,5,14,5,14-3.55,14-5-4.91-5-14-5m0-4c9.94,0,18,4,18,9s-8.06,9-18,9S6,20,6,15s8.06-9,18-9ZM37.94,23.69A.94.94,0,0,1,38,24c0,1.45-4.91,5-14,5s-14-3.55-14-5a.94.94,0,0,1,.06-.31,10,10,0,0,1-3-2.69,5.16,5.16,0,0,0-1,3c0,5,8.06,9,18,9s18-4,18-9a5.16,5.16,0,0,0-1-3A10,10,0,0,1,37.94,23.69Z"/><rect width="48" height="48" style="fill:none"/></svg>