<svg xmlns="http://www.w3.org/2000/svg" viewBox="0 0 48 48"><path d="M17,25a2,2,0,1,1-2,2,2,2,0,0,1,2-2m0-4a6,6,0,1,0,6,6,6,6,0,0,0-6-6Zm14,4a2,2,0,1,1-2,2,2,2,0,0,1,2-2m0-4a6,6,0,1,0,6,6,6,6,0,0,0-6-6Zm8,6a8,8,0,0,1-15,3.86,8,8,0,1,1,0-7.72A8,8,0,0,1,39,27ZM31,15a11.92,11.92,0,0,0-7,2.27,12,12,0,1,0,0,19.46A12,12,0,1,0,31,15ZM17,13a13.82,13.82,0,0,1,6,1.35,6,6,0,0,0-11.92,0A13.82,13.82,0,0,1,17,13Zm14,0a13.82,13.82,0,0,1,6,1.35,6,6,0,0,0-11.92,0A13.82,13.82,0,0,1,31,13Z"/><rect width="48" height="48" style="fill:none"/></svg>