<svg xmlns="http://www.w3.org/2000/svg" viewBox="0 0 48 48"><path d="M24,10A14,14,0,1,1,10,24,14,14,0,0,1,24,10m0-4A18,18,0,1,0,42,24,18,18,0,0,0,24,6Zm0,10a1,1,0,1,1-1,1,1,1,0,0,1,1-1m0-4a5,5,0,1,0,5,5,5,5,0,0,0-5-5Zm6.07,14.5a1,1,0,0,1,.49.13,1,1,0,0,1-.5,1.87,1,1,0,0,1-.5-.13,1,1,0,0,1-.46-.61.94.94,0,0,1,.1-.76,1,1,0,0,1,.87-.5m0-4a5,5,0,1,0,2.49.67,5,5,0,0,0-2.49-.67Zm-12.14,4a1,1,0,0,1,.51,1.87,1,1,0,0,1-.5.13,1,1,0,0,1-.87-.5,1,1,0,0,1-.1-.76,1,1,0,0,1,.47-.61,1,1,0,0,1,.49-.13m0-4A5,5,0,1,0,22.27,25a5,5,0,0,0-4.34-2.5Z"/><rect width="48" height="48" style="fill:none"/></svg>