<svg xmlns="http://www.w3.org/2000/svg" viewBox="0 0 48 48"><rect width="48" height="48" style="fill:none"/><path d="M32,26a6,6,0,1,1-6,6,6,6,0,0,1,6-6m0-4A10,10,0,1,0,42,32,10,10,0,0,0,32,22ZM12.06,25.19A11.71,11.71,0,0,1,12,24a11.91,11.91,0,0,1,.44-3.18,6,6,0,1,1,8.38-8.38A11.91,11.91,0,0,1,24,12a11.71,11.71,0,0,1,1.19.06A10,10,0,1,0,12.06,25.19Zm8,8A11.71,11.71,0,0,1,20,32a11.91,11.91,0,0,1,.44-3.18,6,6,0,1,1,8.38-8.38A11.91,11.91,0,0,1,32,20a11.71,11.71,0,0,1,1.19.06A10,10,0,1,0,20.06,33.19Z"/></svg>