<svg xmlns="http://www.w3.org/2000/svg" viewBox="0 0 48 48"><rect width="48" height="48" style="fill:none"/><path d="M31,22.94A4.12,4.12,0,0,0,26.72,19a4.45,4.45,0,0,0-2.72.91A4.45,4.45,0,0,0,21.28,19,4.12,4.12,0,0,0,17,22.94a3.79,3.79,0,0,0,1.25,2.78h0L24,31l5.76-5.28A3.79,3.79,0,0,0,31,22.94ZM24,10a14,14,0,0,0,0,28,13.73,13.73,0,0,0,6.58-1.65l1.31-.69,1.45.32,3.39.75L36,33.34l-.32-1.45.69-1.31A13.73,13.73,0,0,0,38,24,14,14,0,0,0,24,10m0-4A18,18,0,0,1,39.88,32.47L42,42l-9.53-2.12A18,18,0,1,1,24,6Z"/></svg>