<svg xmlns="http://www.w3.org/2000/svg" viewBox="0 0 48 48"><rect width="48" height="48" style="fill:none"/><path d="M26,31H22v4h4Zm5-12.43A7.24,7.24,0,0,0,24,13a7,7,0,0,0-7,7h4a3,3,0,0,1,5.36-1.85A3.09,3.09,0,0,1,26,22.22L24,24.29A6.65,6.65,0,0,0,22,29h4a2.67,2.67,0,0,1,.78-1.88l1.1-1.1L29,25h0A6.29,6.29,0,0,0,31,18.57ZM24,10a14,14,0,0,0,0,28,13.73,13.73,0,0,0,6.58-1.65l1.31-.69,1.45.32,3.39.75L36,33.34l-.32-1.45.69-1.31A13.73,13.73,0,0,0,38,24,14,14,0,0,0,24,10m0-4A18,18,0,0,1,39.88,32.47L42,42l-9.53-2.12A18,18,0,1,1,24,6Z"/></svg>