<svg xmlns="http://www.w3.org/2000/svg" viewBox="0 0 48 48"><rect width="48" height="48" style="fill:none"/><path d="M24,10a5,5,0,0,1,3.54,1.46l1.17,1.18h1.65a5,5,0,0,1,5,5v1.65l1.18,1.17a5,5,0,0,1,0,7.08l-1.18,1.17v1.65a5,5,0,0,1-5,5H28.71l-1.17,1.18a5,5,0,0,1-7.08,0l-1.17-1.18H17.64a5,5,0,0,1-5-5V28.71l-1.18-1.17a5,5,0,0,1,0-7.08l1.18-1.17V17.64a5,5,0,0,1,5-5h1.65l1.17-1.18A5,5,0,0,1,24,10m0-4a8.94,8.94,0,0,0-6.36,2.64,9,9,0,0,0-9,9,9,9,0,0,0,0,12.72,9,9,0,0,0,9,9,9,9,0,0,0,12.72,0,9,9,0,0,0,9-9,9,9,0,0,0,0-12.72,9,9,0,0,0-9-9h0A8.94,8.94,0,0,0,24,6Zm1.89,25.5h-4v4h4Zm5-12.43a7.24,7.24,0,0,0-7-5.57,7,7,0,0,0-7,7h4a3,3,0,0,1,5.36-1.85,3.09,3.09,0,0,1-.36,4.07l-2,2.07a6.64,6.64,0,0,0-2,4.71h4a2.65,2.65,0,0,1,.78-1.88l1.1-1.1,1.12-1h0A6.29,6.29,0,0,0,30.89,19.07Z"/></svg>