<svg xmlns="http://www.w3.org/2000/svg" viewBox="0 0 48 48"><rect width="48" height="48" style="fill:none"/><path d="M24,10a5,5,0,0,1,3.54,1.46l1.17,1.18h1.65a5,5,0,0,1,5,5v1.65l1.18,1.17a5,5,0,0,1,0,7.08l-1.18,1.17v1.65a5,5,0,0,1-5,5H28.71l-1.17,1.18a5,5,0,0,1-7.08,0l-1.17-1.18H17.64a5,5,0,0,1-5-5V28.71l-1.18-1.17a5,5,0,0,1,0-7.08l1.18-1.17V17.64a5,5,0,0,1,5-5h1.65l1.17-1.18A5,5,0,0,1,24,10m0-4a8.94,8.94,0,0,0-6.36,2.64,9,9,0,0,0-9,9,9,9,0,0,0,0,12.72,9,9,0,0,0,9,9,9,9,0,0,0,12.72,0,9,9,0,0,0,9-9,9,9,0,0,0,0-12.72,9,9,0,0,0-9-9h0A8.94,8.94,0,0,0,24,6Zm9.41,13.41-2.82-2.82L21.5,25.67l-4.59-4.58-2.82,2.82,7.41,7.42Z"/></svg>