<svg xmlns="http://www.w3.org/2000/svg" viewBox="0 0 48 48"><rect width="48" height="48" style="fill:none"/><path d="M33,26H26v7H22V26H15V22h7V15h4v7h7ZM24,10a5,5,0,0,0-3.54,1.46l-1.17,1.18H17.64a5,5,0,0,0-5,5v1.65l-1.18,1.17a5,5,0,0,0,0,7.08l1.18,1.17v1.65a5,5,0,0,0,5,5h1.65l1.17,1.18a5,5,0,0,0,7.08,0l1.17-1.18h1.65a5,5,0,0,0,5-5V28.71l1.18-1.17a5,5,0,0,0,0-7.08l-1.18-1.17V17.64a5,5,0,0,0-5-5H28.71l-1.17-1.18A5,5,0,0,0,24,10m0-4a8.94,8.94,0,0,1,6.36,2.64h0a9,9,0,0,1,9,9,9,9,0,0,1,0,12.72,9,9,0,0,1-9,9,9,9,0,0,1-12.72,0,9,9,0,0,1-9-9,9,9,0,0,1,0-12.72,9,9,0,0,1,9-9A8.94,8.94,0,0,1,24,6Z"/></svg>