<svg xmlns="http://www.w3.org/2000/svg" viewBox="0 0 48 48"><rect width="48" height="48" style="fill:none"/><path d="M44,30a5.93,5.93,0,0,1-1.54,4A5.93,5.93,0,0,1,44,38v6H40V38a2,2,0,0,0-4,0v6H32V38a5.93,5.93,0,0,1,1.54-4A5.93,5.93,0,0,1,32,30V24h4v6a2,2,0,0,0,4,0V24h4ZM26,36v2a2,2,0,0,1-4,0V30a2,2,0,0,1,4,0v2h4V30a6,6,0,0,0-12,0v8a6,6,0,0,0,12,0V36ZM40,15.66V22h4V14L34,4H4V22H8V8H32.34ZM10,28a2,2,0,0,0-2,2v8a2,2,0,0,0,4,0V30a2,2,0,0,0-2-2m0-4a6,6,0,0,1,6,6v8A6,6,0,0,1,4,38V30a6,6,0,0,1,6-6Z"/></svg>