<svg xmlns="http://www.w3.org/2000/svg" viewBox="0 0 48 48"><rect width="48" height="48" style="fill:none"/><path d="M30,30a5.93,5.93,0,0,1-1.54,4A5.93,5.93,0,0,1,30,38v6H26V38a2,2,0,0,0-4,0v6H18V38a5.93,5.93,0,0,1,1.54-4A5.93,5.93,0,0,1,18,30V24h4v6a2,2,0,0,0,4,0V24h4Zm8-2H36V40h2a2,2,0,0,0,2-2V30a2,2,0,0,0-2-2m0-4a6,6,0,0,1,6,6v8a6,6,0,0,1-6,6H32V24ZM34,4,44,14v8H40V15.66L32.34,8H8V22H4V4ZM16,24v9.33a8,8,0,0,1-1.6,4.8L10,44,5.6,38.13A8,8,0,0,1,4,33.33V24H8v9.33a4,4,0,0,0,.8,2.4l1.2,1.6,1.2-1.6a4,4,0,0,0,.8-2.4V24Z"/></svg>