<svg xmlns="http://www.w3.org/2000/svg" viewBox="0 0 48 48"><rect width="48" height="48" style="fill:none"/><path d="M16,36v2A6,6,0,0,1,4,38V30a6,6,0,0,1,12,0v2H12V30a2,2,0,0,0-4,0v8a2,2,0,0,0,4,0V36Zm26.46-2A5.93,5.93,0,0,1,44,38a6,6,0,0,1-6,6H32V24h6a6,6,0,0,1,6,6A5.93,5.93,0,0,1,42.46,34ZM36,32h2a2,2,0,0,0,0-4H36Zm4,6a2,2,0,0,0-2-2H36v4h2A2,2,0,0,0,40,38ZM24,28a2,2,0,0,1,2,2v2H22V30a2,2,0,0,1,2-2m0-4a6,6,0,0,0-6,6V44h4V36h4v8h4V30a6,6,0,0,0-6-6ZM34,4,44,14v8H40V15.66L32.34,8H8V22H4V4Z"/></svg>