<svg xmlns="http://www.w3.org/2000/svg" viewBox="0 0 48 48"><rect width="48" height="48" style="fill:none"/><path d="M34,4,44,14v8H40V15.66L32.34,8H8V22H4V4ZM28.46,34A5.93,5.93,0,0,1,30,38a6,6,0,0,1-6,6H18V24h6a6,6,0,0,1,6,6A5.93,5.93,0,0,1,28.46,34ZM22,32h2a2,2,0,0,0,0-4H22Zm4,6a2,2,0,0,0-2-2H22v4h2A2,2,0,0,0,26,38ZM44,28V24H32v4h4V40H32v4H44V40H40V28ZM14.46,34A5.93,5.93,0,0,1,16,38,6,6,0,0,1,4,38a5.93,5.93,0,0,1,1.54-4A5.93,5.93,0,0,1,4,30a6,6,0,0,1,12,0A5.93,5.93,0,0,1,14.46,34ZM8,30a2,2,0,1,0,2-2A2,2,0,0,0,8,30Zm4,8a2,2,0,1,0-2,2A2,2,0,0,0,12,38Z"/></svg>