<svg xmlns="http://www.w3.org/2000/svg" viewBox="0 0 48 48"><rect width="48" height="48" style="fill:none"/><path d="M14.46,34A5.93,5.93,0,0,1,16,38a6,6,0,0,1-6,6H4V24h6a6,6,0,0,1,6,6A5.93,5.93,0,0,1,14.46,34ZM8,32h2a2,2,0,0,0,0-4H8Zm4,6a2,2,0,0,0-2-2H8v4h2A2,2,0,0,0,12,38Zm16.46-4A5.93,5.93,0,0,1,30,38a6,6,0,0,1-6,6H18V24h6a6,6,0,0,1,6,6A5.93,5.93,0,0,1,28.46,34ZM22,32h2a2,2,0,0,0,0-4H22Zm4,6a2,2,0,0,0-2-2H22v4h2A2,2,0,0,0,26,38Zm12-6a2,2,0,1,1,2-2h4a6,6,0,1,0-6,6,2,2,0,1,1-2,2H32a6,6,0,1,0,6-6ZM34,4,44,14v8H40V15.66L32.34,8H8V22H4V4Z"/></svg>