<svg xmlns="http://www.w3.org/2000/svg" viewBox="0 0 48 48"><rect width="48" height="48" style="fill:none"/><path d="M30,30a5.93,5.93,0,0,1-1.54,4A5.93,5.93,0,0,1,30,38v6H26V38a2,2,0,0,0-4,0v6H18V38a5.93,5.93,0,0,1,1.54-4A5.93,5.93,0,0,1,18,30V24h4v6a2,2,0,0,0,4,0V24h4ZM10,28H8V40h2a2,2,0,0,0,2-2V30a2,2,0,0,0-2-2m0-4a6,6,0,0,1,6,6v8a6,6,0,0,1-6,6H4V24ZM42.46,34A5.93,5.93,0,0,1,44,38a6,6,0,0,1-6,6H32V24h6a6,6,0,0,1,6,6A5.93,5.93,0,0,1,42.46,34ZM36,32h2a2,2,0,0,0,0-4H36Zm4,6a2,2,0,0,0-2-2H36v4h2A2,2,0,0,0,40,38ZM34,4,44,14v8H40V15.66L32.34,8H8V22H4V4Z"/></svg>