<svg xmlns="http://www.w3.org/2000/svg" viewBox="0 0 48 48"><rect width="48" height="48" style="fill:none"/><path d="M10.83,38H40v4H6V37.17l8.65-8.65c-5.51-6.53-6.5-14.89-2-19.37A10.22,10.22,0,0,1,20,6.32a18.09,18.09,0,0,1,9.52,3l-2.9,2.9A13.63,13.63,0,0,0,20,10.32,6.4,6.4,0,0,0,15.46,12c-3.2,3.21-1.66,10.17,3.37,15.2,3.14,3.15,7.11,5,10.62,5A6.4,6.4,0,0,0,34,30.54c2.41-2.42,2.13-7-.3-11.2l2.92-2.91c3.86,6.05,4.15,13,.2,16.93a10.22,10.22,0,0,1-7.4,2.83,19.09,19.09,0,0,1-12-4.84Zm14-14L40,8.83,37.17,6,22,21.17Z"/></svg>