<svg xmlns="http://www.w3.org/2000/svg" viewBox="0 0 48 48"><path d="M37.17,24A35.78,35.78,0,0,0,42,6a35.78,35.78,0,0,0-18,4.83A35.78,35.78,0,0,0,6,6a35.78,35.78,0,0,0,4.83,18A35.78,35.78,0,0,0,6,42a35.78,35.78,0,0,0,18-4.83A35.78,35.78,0,0,0,42,42,35.78,35.78,0,0,0,37.17,24Zm.54-13.71a31.62,31.62,0,0,1-3.05,9.93,36.15,36.15,0,0,0-6.88-6.88A31.62,31.62,0,0,1,37.71,10.29ZM32.42,24A32.41,32.41,0,0,1,24,32.42,32.41,32.41,0,0,1,15.58,24,32.41,32.41,0,0,1,24,15.58,32.41,32.41,0,0,1,32.42,24ZM10.29,10.29a31.62,31.62,0,0,1,9.93,3.05,36.15,36.15,0,0,0-6.88,6.88A31.62,31.62,0,0,1,10.29,10.29Zm0,27.42a31.62,31.62,0,0,1,3.05-9.93,36.15,36.15,0,0,0,6.88,6.88A31.62,31.62,0,0,1,10.29,37.71Zm24.37-9.93a31.62,31.62,0,0,1,3.05,9.93,31.62,31.62,0,0,1-9.93-3.05A36.15,36.15,0,0,0,34.66,27.78Z"/><rect width="48" height="48" style="fill:none"/></svg>