<svg xmlns="http://www.w3.org/2000/svg" viewBox="0 0 48 48"><rect width="48" height="48" style="fill:none"/><path d="M39,17.25c2-4.61,2.16-8.6,0-10.72A5.87,5.87,0,0,0,34.73,5h0c-3.06,0-7,1.46-11.1,4.07A16,16,0,0,0,9.07,23.6C4.93,30.11,3.71,36.21,6.53,39a5.87,5.87,0,0,0,4.3,1.53A16.72,16.72,0,0,0,17.26,39,16,16,0,0,0,39,17.25ZM34.73,9h0a2.24,2.24,0,0,1,1.47.36c.5.49.55,2-.08,4.15A16,16,0,0,0,30.5,10,12.23,12.23,0,0,1,34.73,9ZM25,13a12,12,0,0,1,9.41,4.58,40.38,40.38,0,0,1-7.25,9.58,41,41,0,0,1-9.59,7.25A12,12,0,0,1,25,13ZM9.36,36.2c-.61-.6-.53-2.72.63-5.69a16.14,16.14,0,0,0,3.51,5.6,9.77,9.77,0,0,1-2.67.45A2.24,2.24,0,0,1,9.36,36.2ZM25,37a11.84,11.84,0,0,1-3.17-.44A46.78,46.78,0,0,0,30,30a47.15,47.15,0,0,0,6.58-8.15A11.84,11.84,0,0,1,37,25,12,12,0,0,1,25,37Z"/></svg>