<svg xmlns="http://www.w3.org/2000/svg" viewBox="0 0 48 48"><rect width="48" height="48" style="fill:none"/><path d="M22,18.5A2.5,2.5,0,1,1,19.5,16,2.5,2.5,0,0,1,22,18.5ZM28.5,16A2.5,2.5,0,1,0,31,18.5,2.5,2.5,0,0,0,28.5,16ZM24,9a10,10,0,0,0-5,18.65l2,1.16V37h6V28.81l2-1.16A10,10,0,0,0,24,9m0-4a14,14,0,0,1,7,26.11V41H17V31.11A14,14,0,0,1,24,5ZM15,32.21a16.1,16.1,0,0,1-4.15-4.12L7.77,27,6.4,30.72,15,33.85Zm18,0v1.64l8.6-3.13L40.23,27l-3.08,1.13A16.1,16.1,0,0,1,33,32.21Zm0,8.19L40.23,43l1.37-3.76L33,36.15ZM15,36.15,6.4,39.28,7.77,43,15,40.4Z"/></svg>