<svg xmlns="http://www.w3.org/2000/svg" viewBox="0 0 48 48"><rect width="48" height="48" style="fill:none"/><path d="M41.89,22H30.71a7,7,0,0,0-1.61-2.81L34.68,9.5a17.91,17.91,0,0,0-21.34,0l5.59,9.68a6.78,6.78,0,0,0-1,1.31,6.58,6.58,0,0,0-.64,1.5H6.13A18,18,0,0,0,15,39.58a19.85,19.85,0,0,0,1.79.89l5.59-9.68a7,7,0,0,0,3.24,0l5.59,9.68A17.94,17.94,0,0,0,41.89,22ZM29.21,11l-3.58,6.19a7,7,0,0,0-3.24,0L18.82,11A14,14,0,0,1,29.21,11Zm-19,15h7.14a6.89,6.89,0,0,0,1.62,2.8L15.35,35A14,14,0,0,1,10.17,26Zm12.34.59a3,3,0,1,1,4.1-1.09A3,3,0,0,1,22.51,26.58ZM36.14,31a13.81,13.81,0,0,1-3.48,4l-3.57-6.18A6.73,6.73,0,0,0,30.71,26h7.14A14,14,0,0,1,36.14,31Z"/></svg>