<svg xmlns="http://www.w3.org/2000/svg" viewBox="0 0 48 48"><rect width="48" height="48" style="fill:none"/><path d="M42.53,24.68a11,11,0,0,0-8-5.35c-.12-.22-.26-.44-.39-.65a11,11,0,0,0-.66-9.59,11.33,11.33,0,0,0-1.75-2.27L29,9.65a6.82,6.82,0,0,1,1.11,1.44,7,7,0,0,1,.9,4.15,11.94,11.94,0,0,0-13.91,0,7,7,0,0,1,2-5.58L16.23,6.82A11,11,0,0,0,13.8,18.7c-.12.21-.26.41-.37.62A10.84,10.84,0,0,0,9.5,20.65,11,11,0,0,0,4,30.18H8a7,7,0,0,1,3.49-6.06,5.85,5.85,0,0,1,.56-.28A11.12,11.12,0,0,0,12,25a12,12,0,0,0,7,10.91c-.17.11-.34.23-.52.33a6.92,6.92,0,0,1-3.49.94h0v4h0A10.85,10.85,0,0,0,23.62,37L24,37l.41,0A11,11,0,0,0,33,41.18v-4a7,7,0,0,1-4-1.28A12,12,0,0,0,36,25a10.93,10.93,0,0,0-.06-1.15A6.92,6.92,0,0,1,40,30.18h4A11,11,0,0,0,42.53,24.68Zm-13.17-5.6A7,7,0,0,1,24,21.59a7,7,0,0,1-5.37-2.51,7.95,7.95,0,0,1,10.72,0ZM16,25a7.91,7.91,0,0,1,.19-1.7,7,7,0,0,1,5.37,9.32A8,8,0,0,1,16,25Zm10.44,7.62a7,7,0,0,1,5.37-9.33,8,8,0,0,1-5.37,9.33Z"/></svg>