<svg xmlns="http://www.w3.org/2000/svg" viewBox="0 0 48 48"><path d="M38.39,24c4-6.59,4.86-12.94,1.71-16.09A7.25,7.25,0,0,0,34.81,6C31.7,6,27.89,7.28,24,9.61,17.4,5.66,11.05,4.75,7.9,7.9A7.25,7.25,0,0,0,6,13.19C6,16.3,7.28,20.11,9.61,24,5.66,30.6,4.75,37,7.9,40.1A7.25,7.25,0,0,0,13.19,42c3.11,0,6.92-1.28,10.82-3.61,6.59,4,12.94,4.86,16.09,1.71A7.26,7.26,0,0,0,42,34.81C42,31.7,40.72,27.89,38.39,24ZM34.81,10a3.62,3.62,0,0,1,2.46.73c1.29,1.29.94,5-1.4,9.58A46.2,46.2,0,0,0,32.05,16a46.29,46.29,0,0,0-4.37-3.82A16.81,16.81,0,0,1,34.81,10ZM33.62,24a40.27,40.27,0,0,1-4.4,5.22A39.32,39.32,0,0,1,24,33.61a40,40,0,0,1-5.23-4.39A39.32,39.32,0,0,1,14.39,24a40,40,0,0,1,4.39-5.23A39.61,39.61,0,0,1,24,14.38a40.27,40.27,0,0,1,5.22,4.4A39.61,39.61,0,0,1,33.62,24ZM10,13.19a3.62,3.62,0,0,1,.73-2.46c1.29-1.29,5-.94,9.58,1.4a43.65,43.65,0,0,0-8.18,8.19A16.81,16.81,0,0,1,10,13.19ZM13.19,38a3.62,3.62,0,0,1-2.46-.73c-1-1-1-3.4,0-6.31a22.1,22.1,0,0,1,1.41-3.27A44.81,44.81,0,0,0,16,32.05a46.29,46.29,0,0,0,4.37,3.82A16.66,16.66,0,0,1,13.19,38Zm24.08-.73c-1,1-3.4,1-6.31,0a22.1,22.1,0,0,1-3.27-1.41,44.81,44.81,0,0,0,4.36-3.82,46.29,46.29,0,0,0,3.82-4.37A16.66,16.66,0,0,1,38,34.81,3.62,3.62,0,0,1,37.27,37.27Z"/><rect width="48" height="48" style="fill:none"/></svg>