<svg xmlns="http://www.w3.org/2000/svg" viewBox="0 0 48 48"><path d="M30,24a6,6,0,1,0-6,6A6,6,0,0,0,30,24Zm-8,0a2,2,0,1,1,2,2A2,2,0,0,1,22,24Zm22,4V20H40v2H37.84a13.9,13.9,0,0,0-2.64-6.37l1.53-1.53,1.41,1.41L41,12.69,35.31,7,32.49,9.86l1.41,1.41L32.37,12.8A13.9,13.9,0,0,0,26,10.16V8h2V4H20V8h2v2.16a13.9,13.9,0,0,0-6.37,2.64L14.1,11.27l1.41-1.41L12.69,7,7,12.69l2.83,2.82,1.41-1.41,1.53,1.53A13.9,13.9,0,0,0,10.16,22H8V20H4v8H8V26h2.16a13.9,13.9,0,0,0,2.64,6.37L11.27,33.9,9.86,32.49,7,35.31,12.69,41l2.82-2.83L14.1,36.73l1.53-1.53A13.9,13.9,0,0,0,22,37.84V40H20v4h8V40H26V37.84a13.9,13.9,0,0,0,6.37-2.64l1.53,1.53-1.41,1.41L35.31,41,41,35.31l-2.83-2.82L36.73,33.9,35.2,32.37A13.9,13.9,0,0,0,37.84,26H40v2ZM14,24A10,10,0,1,1,24,34,10,10,0,0,1,14,24Z"/><rect width="48" height="48" style="fill:none"/></svg>