<svg xmlns="http://www.w3.org/2000/svg" viewBox="0 0 48 48"><path d="M26.83,24l3.53,3.54-2.82,2.82L24,26.83l-3.54,3.53-2.82-2.82L21.17,24l-3.53-3.54,2.82-2.82L24,21.17l3.54-3.53,2.82,2.82ZM40,28V26H37.84a13.9,13.9,0,0,1-2.64,6.37l1.53,1.53,1.41-1.41L41,35.31,35.31,41l-2.82-2.83,1.41-1.41L32.37,35.2A13.9,13.9,0,0,1,26,37.84V40h2v4H20V40h2V37.84a13.9,13.9,0,0,1-6.37-2.64L14.1,36.73l1.41,1.41L12.69,41,7,35.31l2.83-2.82,1.41,1.41,1.53-1.53A13.9,13.9,0,0,1,10.16,26H8v2H4V20H8v2h2.16a13.9,13.9,0,0,1,2.64-6.37L11.27,14.1,9.86,15.51,7,12.69,12.69,7l2.82,2.83L14.1,11.27l1.53,1.53A13.9,13.9,0,0,1,22,10.16V8H20V4h8V8H26v2.16a13.9,13.9,0,0,1,6.37,2.64l1.53-1.53L32.49,9.86,35.31,7,41,12.69l-2.83,2.82L36.73,14.1,35.2,15.63A13.9,13.9,0,0,1,37.84,22H40V20h4v8ZM24,34A10,10,0,1,0,14,24,10,10,0,0,0,24,34Z"/><rect width="48" height="48" style="fill:none"/></svg>