<svg xmlns="http://www.w3.org/2000/svg" viewBox="0 0 48 48"><path d="M24,6A18,18,0,1,0,42,24,18,18,0,0,0,24,6ZM36.11,17H31.37a25.45,25.45,0,0,0-1.76-5.82A14.14,14.14,0,0,1,36.11,17ZM38,24a14.14,14.14,0,0,1-.33,3H31.88C32,26,32,25,32,24s-.05-2-.12-3h5.79A14.14,14.14,0,0,1,38,24ZM24,38c-.81-.39-2.38-2.77-3.29-7h6.58C26.38,35.21,24.81,37.59,24,38ZM20.12,27Q20,25.59,20,24t.12-3h7.76q.12,1.41.12,3t-.12,3ZM10,24a14.14,14.14,0,0,1,.33-3h5.79c-.07,1-.12,2-.12,3s.05,2,.12,3H10.33A14.14,14.14,0,0,1,10,24ZM24,10c.81.39,2.38,2.77,3.29,7H20.71C21.62,12.79,23.19,10.41,24,10Zm-5.61,1.16A25.45,25.45,0,0,0,16.63,17H11.89A14.14,14.14,0,0,1,18.39,11.18ZM11.89,31h4.74a25.45,25.45,0,0,0,1.76,5.82A14.14,14.14,0,0,1,11.89,31Zm17.72,5.82A25.45,25.45,0,0,0,31.37,31h4.74A14.14,14.14,0,0,1,29.61,36.82Z"/><rect width="48" height="48" style="fill:none"/></svg>