<svg xmlns="http://www.w3.org/2000/svg" viewBox="0 0 48 48"><rect width="48" height="48" style="fill:none"/><path d="M37,22H35.68L32,12A6,6,0,0,0,26.38,8H23v4h3.38a2,2,0,0,1,1.88,1.32L31.42,22H23.68l-2.55-7H11v4h7.33l2.55,7h8.64a9,9,0,0,0-1.29,3H19.77a9,9,0,0,0-8.72-7,9.11,9.11,0,0,0-9,8.74A9,9,0,0,0,19.77,33h8.46A9,9,0,0,0,37,40c6.41,0,11.26-6.7,7.91-13.48A8.33,8.33,0,0,0,37,22ZM11,36a5,5,0,1,1,4.58-7H11v4h4.58A5,5,0,0,1,11,36Zm26,0a5,5,0,0,1-3.57-8.49l1.85,5.09L39,31.23,37.14,26A5,5,0,0,1,37,36Z"/></svg>