<svg xmlns="http://www.w3.org/2000/svg" viewBox="0 0 48 48"><rect width="48" height="48" style="fill:none"/><path d="M30.93,24.52A5.12,5.12,0,0,0,31,24c0-.16,0-.33,0-.49A14.77,14.77,0,0,0,41.68,6.32a14.76,14.76,0,0,0-13.32,4A14.6,14.6,0,0,0,24.54,17c-.19,0-.38,0-.58,0l-.51,0A14.77,14.77,0,0,0,6.32,6.32a14.76,14.76,0,0,0,4,13.32A14.55,14.55,0,0,0,17,23.46c0,.17,0,.33,0,.5s0,.4,0,.59A14.77,14.77,0,0,0,6.32,41.68,14.76,14.76,0,0,0,23.48,30.94L24,31a5.44,5.44,0,0,0,.57,0A14.77,14.77,0,0,0,41.68,41.68,14.75,14.75,0,0,0,30.93,24.52Zm.26-11.33a10.73,10.73,0,0,1,6.74-3.12,10.74,10.74,0,0,1-8.42,9.63,6.66,6.66,0,0,0-1.21-1.22A10.72,10.72,0,0,1,31.19,13.19Zm-18,3.62a10.73,10.73,0,0,1-3.12-6.74,10.72,10.72,0,0,1,9.61,8.36,7.1,7.1,0,0,0-1.25,1.26A10.67,10.67,0,0,1,13.19,16.81Zm3.62,18a10.73,10.73,0,0,1-6.74,3.12,10.74,10.74,0,0,1,8.41-9.63,7,7,0,0,0,1.22,1.21A10.59,10.59,0,0,1,16.81,34.81ZM21,24a3,3,0,1,1,3,3A3,3,0,0,1,21,24ZM31.19,34.81a10.73,10.73,0,0,1-2.9-5.35,7.19,7.19,0,0,0,1.17-1.17,10.61,10.61,0,0,1,5.35,2.9,10.73,10.73,0,0,1,3.12,6.74A10.63,10.63,0,0,1,31.19,34.81Z"/></svg>