<svg xmlns="http://www.w3.org/2000/svg" viewBox="0 0 48 48"><rect width="48" height="48" style="fill:none"/><path d="M39.3,9.48C37.49,7.93,35.24,6,31,6s-6.5,1.93-8.31,3.48C21.05,10.89,19.75,12,17,12s-4-1.11-5.69-2.52A13,13,0,0,0,6,6.38V42h4V31.59A10.74,10.74,0,0,0,17,34c4.24,0,6.5-1.93,8.31-3.48C26.94,29.11,28.24,28,31,28s4,1.11,5.7,2.52a12.89,12.89,0,0,0,5.3,3.1V11.39A12,12,0,0,1,39.3,9.48ZM38,26.41A10.83,10.83,0,0,0,31,24c-4.24,0-6.5,1.93-8.31,3.48C21.05,28.89,19.75,30,17,30s-4-1.11-5.69-2.52c-.4-.34-.84-.71-1.3-1.07V13.59A10.74,10.74,0,0,0,17,16c4.24,0,6.5-1.93,8.31-3.48C26.94,11.11,28.24,10,31,10s4,1.11,5.7,2.52c.4.35.83.71,1.3,1.07Z"/></svg>