<svg xmlns="http://www.w3.org/2000/svg" viewBox="0 0 48 48"><rect width="48" height="48" style="fill:none"/><path d="M27.41,8c-.47,0-.95,0-1.42.06A24,24,0,0,0,4,32v.08A8.06,8.06,0,0,0,12.12,40H28A16,16,0,0,0,44,23.47C43.71,14.64,36.11,8,27.41,8Zm-12.7,9.08,11,6.85a1.36,1.36,0,0,1-1.16,2H9A20.25,20.25,0,0,1,14.71,17.09ZM36.62,32.34A11.92,11.92,0,0,1,28,36H12.12A4,4,0,0,1,8,32.06V32a18.85,18.85,0,0,1,.11-2H24.55a5.34,5.34,0,0,0,3.78-9.12L18.24,14.58a19.53,19.53,0,0,1,8.08-2.52c.36,0,.73-.05,1.09-.05C34.15,12,39.79,17.21,40,23.6A11.9,11.9,0,0,1,36.62,32.34Z"/></svg>