<svg xmlns="http://www.w3.org/2000/svg" viewBox="0 0 48 48"><rect width="48" height="48" style="fill:none"/><path d="M32,34V27.15l5.47-2C40.58,24,41.73,19.32,40,14.65s-5.6-7.54-8.72-6.4L5,17.82l1.37,3.76,4.71-1.71a12.23,12.23,0,0,0,.76,5c1.7,4.67,5.6,7.54,8.71,6.41L28,28.61v8.75L43,40V35.94ZM19.19,27.56c-.36.13-2.45-.88-3.59-4s-.19-5.26.17-5.39,2.44.88,3.58,4S19.54,27.43,19.19,27.56Zm3.92-6.75a12.22,12.22,0,0,0-2.66-4.35L32.68,12c.36-.13,2.45.88,3.59,4s.19,5.25-.17,5.38L23.87,25.85A12.23,12.23,0,0,0,23.11,20.81Z"/></svg>