<svg xmlns="http://www.w3.org/2000/svg" viewBox="0 0 48 48"><path d="M42,39.17l-7.59-7.58h0l-2.82-2.83h0L28.86,26h0L26,23.2h0L21.8,19h0L19,16.14h0l-2.81-2.8h0L13.33,10.5h0L8.83,6,6,8.83l4.93,4.93a14.88,14.88,0,0,0,2.53,17.7L24,42l7.59-7.59L39.17,42ZM24,36.34l-7.72-7.71a10.84,10.84,0,0,1-3.19-7.72,10.69,10.69,0,0,1,.83-4.16l3.17,3.17A7.61,7.61,0,0,0,17,21a7,7,0,0,0,7,7,7.61,7.61,0,0,0,1.08-.09l3.68,3.68ZM19.48,11l-3-3A14.89,14.89,0,0,1,36.88,28.4l-3-3A10.9,10.9,0,0,0,24,10h0A10.86,10.86,0,0,0,19.48,11ZM24,14a7,7,0,0,1,6.86,8.38l-8.24-8.24A7,7,0,0,1,24,14Z"/><rect width="48" height="48" style="fill:none"/></svg>