<svg xmlns="http://www.w3.org/2000/svg" viewBox="0 0 48 48"><rect width="48" height="48" style="fill:none"/><rect x="35.76" y="6.24" width="4" height="8" transform="translate(3.82 29.7) rotate(-45)"/><path d="M36.63,33.8l-2.86-2.86h0L17.06,14.23h0L14.2,11.37h0L8.83,6,6,8.83l1.41,1.41L6,11.66l2.83,2.83,1.41-1.42,1.13,1.13A16,16,0,0,0,33.8,36.63L39.17,42,42,39.17,36.63,33.8ZM24,36a12,12,0,0,1-9.77-18.94L30.94,33.77A11.89,11.89,0,0,1,24,36Z"/><path d="M24,12A12,12,0,0,1,36,24a11.77,11.77,0,0,1-.42,3.1l3.15,3.15a16,16,0,0,0-21-21l3.15,3.15A11.77,11.77,0,0,1,24,12Z"/></svg>