<svg xmlns="http://www.w3.org/2000/svg" viewBox="0 0 48 48"><path d="M31,6H19v4H31V6Zm-9.1,8.42-3.15-3.15a16,16,0,0,1,16,2.1l2.79-2.78,2.82,2.82L37.63,16.2a16,16,0,0,1,2.1,16.05L36.58,29.1a11.86,11.86,0,0,0-2.11-10.45l-.93-1.19-1.19-.93A11.86,11.86,0,0,0,21.9,14.42ZM37.63,35.8l-2.86-2.86h0L18.06,16.23h0L15.2,13.37h0L9.83,8,7,10.83l5.37,5.37A16,16,0,0,0,34.8,38.63L38.15,42,41,39.15,37.63,35.8ZM25,38a12,12,0,0,1-9.77-18.94L31.94,35.77A11.89,11.89,0,0,1,25,38Z"/><rect width="48" height="48" style="fill:none"/></svg>