<svg xmlns="http://www.w3.org/2000/svg" viewBox="0 0 48 48"><rect width="48" height="48" style="fill:none"/><path d="M31.78,19.05l-2.12,2.12-2.83-2.83L29,16.22a2,2,0,1,1,2.83,2.83ZM8.34,39.66a8,8,0,0,1,0-11.32L12.69,24a7.91,7.91,0,0,1,6.18-2.3L6,8.83,8.83,6,42,39.17,39.17,42,26.3,29.13A7.91,7.91,0,0,1,24,35.31l-4.34,4.35A8,8,0,0,1,8.34,39.66Zm2.83-2.83a4,4,0,0,0,5.66,0l8.58-8.59L24,26.83l-4.95,5A2,2,0,1,1,16.22,29l5-4.95-1.41-1.41-8.59,8.58A4,4,0,0,0,11.17,36.83ZM39.66,19.66A8,8,0,1,0,28.34,8.34L24,12.69a8.13,8.13,0,0,0-1.23,1.6l2.64,2.64,5.76-5.76a4,4,0,0,1,5.66,5.66l-5.76,5.76,2.64,2.64A8.13,8.13,0,0,0,35.31,24Z"/></svg>